Gidole-Mono-Regular.sfdir
StartChar: exclam
Encoding: 33 33 81
GlifName: exclam
Width: 1140
VWidth: 0
Flags: W
HStem: -16 220<119.109 300.891>
VStem: 100 220<3.10925 184.891> 132 156<557.098 1416>
LayerCount: 2
Back
Fore
SplineSet
210 204 m 4xc0
 275 204 320 159 320 94 c 4
 320 29 275 -16 210 -16 c 4
 145 -16 100 29 100 94 c 4
 100 159 145 204 210 204 c 4xc0
132 1416 m 5xa0
 288 1416 l 5
 288 1051 l 6
 288 812 268 388 268 388 c 5
 152 388 l 5
 152 388 132 810 132 1051 c 6
 132 1416 l 5xa0
EndSplineSet
EndChar
StartChar: numbersign
Encoding: 35 35 98
GlifName: numbersign
Width: 1140
VWidth: 0
Flags: W
HStem: -0 21G<224 367.634 694 837.634> 410 124<117 278 436 748 906 1067> 910 124<183 344 502 814 972 1133>
LayerCount: 2
Back
Fore
SplineSet
814 910 m 5
 485 910 l 5
 436 534 l 5
 765 534 l 5
 814 910 l 5
835 0 m 5
 694 0 l 5
 748 410 l 5
 419 410 l 5
 365 0 l 5
 224 -0 l 5
 278 410 l 5
 117 410 l 5
 117 534 l 5
 295 534 l 5
 344 910 l 5
 183 910 l 5
 183 1034 l 5
 361 1034 l 5
 411 1416 l 5
 552 1416 l 5
 502 1034 l 5
 831 1034 l 5
 881 1416 l 5
 1022 1416 l 5
 972 1034 l 5
 1133 1034 l 5
 1133 910 l 5
 955 910 l 5
 906 534 l 5
 1067 534 l 5
 1067 410 l 5
 889 410 l 5
 835 0 l 5
EndSplineSet
EndChar
StartChar: dollar
Encoding: 36 36 96
GlifName: dollar
Width: 1140
Flags: W
HStem: -17 141<304.359 471 577 694.439> 647 144<577 692.736> 1292 141<355.468 471 577 737.458>
VStem: 98 156<920.226 1192.68> 471 106<-200 -12.5538 125 647 814 1292 1427.64 1616> 813 156<237.623 531.758>
LayerCount: 2
Back
Fore
SplineSet
471 1616 m 1
 577 1616 l 1
 577 1433 l 1
 711 1421 830 1368 919 1313 c 1
 846 1191 l 1
 765 1241 674 1281 577 1292 c 1
 577 791 l 1
 677 770 775 743 862 654 c 0
 923 592 969 498 969 389 c 0
 969 283 931 185 857 110 c 0
 791 43 693 -4 577 -16 c 1
 577 -200 l 5
 471 -200 l 1
 471 -17 l 1
 315 -5 178 61 76 131 c 1
 152 253 l 1
 238 193 348 137 471 124 c 1
 471 670 l 1
 384 689 297 716 218 786 c 0
 152 845 98 943 98 1052 c 0
 98 1158 140 1260 227 1335 c 0
 289 1388 374 1424 471 1433 c 1
 471 1616 l 1
577 647 m 1
 577 125 l 1
 645 135 699 162 739 202 c 0
 785 248 813 313 813 389 c 0
 813 459 783 525 742 565 c 0
 696 610 645 630 577 647 c 1
471 814 m 1
 471 1292 l 1
 414 1284 367 1262 332 1231 c 0
 285 1190 254 1127 254 1053 c 0
 254 989 283 929 323 890 c 0
 364 850 411 830 471 814 c 1
EndSplineSet
EndChar
StartChar: percent
Encoding: 37 37 97
GlifName: percent
Width: 1140
Flags: W
HStem: 0 118<1018.61 1215.39> 560 118<1018.61 1215.39> 754 118<252.613 449.387> 1314 118<252.613 449.387>
VStem: 90 132<899.976 1286.02> 480 132<899.976 1286.02> 856 132<145.976 532.024> 1246 132<145.976 532.024>
LayerCount: 2
Back
Fore
SplineSet
1117 560 m 4
 988.2421875 560 988 444.887695312 988 339 c 4
 988 233.112304688 988.2421875 118 1117 118 c 4
 1245.7578125 118 1246 233.112304688 1246 339 c 4
 1246 444.887695312 1245.7578125 560 1117 560 c 4
1117 678 m 4
 1198.7578125 678 1268.9609375 647.385742188 1312.11230469 598 c 4
 1377.07910156 523.647460938 1378 430.330078125 1378 339 c 4
 1378 247.669921875 1377.07910156 154.352539062 1312.11230469 80 c 4
 1268.9609375 30.6142578125 1198.7578125 0 1117 0 c 4
 1035.2421875 0 965.0390625 30.6142578125 921.887695312 80 c 4
 856.920898438 154.352539062 856 247.669921875 856 339 c 4
 856 430.330078125 856.920898438 523.647460938 921.887695312 598 c 4
 965.0390625 647.385742188 1035.2421875 678 1117 678 c 4
351 1314 m 4
 222.2421875 1314 222 1198.88769531 222 1093 c 4
 222 987.112304688 222.2421875 872 351 872 c 4
 479.7578125 872 480 987.112304688 480 1093 c 4
 480 1198.88769531 479.7578125 1314 351 1314 c 4
351 1432 m 4
 432.7578125 1432 502.9609375 1401.38574219 546.112304688 1352 c 4
 611.079101562 1277.64746094 612 1184.33007812 612 1093 c 4
 612 1001.66992188 611.079101562 908.352539062 546.112304688 834 c 4
 502.9609375 784.614257812 432.7578125 754 351 754 c 4
 269.2421875 754 199.0390625 784.614257812 155.887695312 834 c 4
 90.9208984375 908.352539062 90 1001.66992188 90 1093 c 4
 90 1184.33007812 90.9208984375 1277.64746094 155.887695312 1352 c 4
 199.0390625 1401.38574219 269.2421875 1432 351 1432 c 4
1061 1352 m 5
 1175 1280 l 5
 407 64 l 5
 293 136 l 5
 1061 1352 l 5
EndSplineSet
EndChar
StartChar: ampersand
Encoding: 38 38 103
GlifName: ampersand
Width: 1140
Flags: W
HStem: -16 134<345.05 681.392> 0 21G<954.962 1151> 1298 134<417.194 649.005>
VStem: 86 150<228.212 516.937> 218 150<987.561 1247.21> 698 150<1000.92 1246.53>
LayerCount: 2
Back
Fore
SplineSet
533 1432 m 4xac
 710 1432 848 1308 848 1126 c 4
 848 935 708 854 640 806 c 6
 579 763 l 5
 882 357 l 5
 1002 490 l 5
 1108 394 l 5
 969 241 l 5
 1151 0 l 5
 970 0 l 5x6c
 870 133 l 5
 787 51 676 -16 512 -16 c 4
 249 -16 86 159 86 372 c 4xb4
 86 591 252 700 314 745 c 6
 378 791 l 5
 327 859 l 6
 303 891 218 985 218 1127 c 4
 218 1309 356 1432 533 1432 c 4xac
  Spiro
    533 1432 o
    693.193 1393.19 o
    805.748 1286.09 o
    848 1126 o
    809.255 968.941 o
    724.056 867.773 o
    640 806 [
    579 763 v
    882 357 v
    1002 490 v
    1108 394 v
    969 241 v
    1151 0 v
    970 0 v
    870 133 v
    776.845 57.9922 o
    659.128 4.36854 o
    512 -16 o
    284.856 37.1579 o
    137.898 176.913 o
    86 372 o
    131.253 555.886 o
    227.435 677.056 o
    314 745 [
    378 791 v
    327 859 ]
    288.123 911.076 o
    240.885 1001.63 o
    218 1127 o
    260.252 1286.83 o
    372.807 1393.45 o
    0 0 z
  EndSpiro
533 1298 m 4
 432 1298 368 1227 368 1127 c 4
 368 1033 421 974 454 930 c 6
 496 874 l 5
 558 918 l 6
 616 959 698 1009 698 1126 c 4
 698 1226 635 1298 533 1298 c 4
  Spiro
    533 1298 o
    445.407 1275.93 o
    388.294 1215.7 o
    368 1127 o
    382.936 1044 o
    417.075 979.685 o
    454 930 [
    496 874 v
    558 918 ]
    620.012 964.095 o
    674.635 1029.26 o
    698 1126 o
    677.928 1214.96 o
    621.038 1275.67 o
    0 0 z
  EndSpiro
236 372 m 4xb4
 236 246 320 118 512 118 c 4
 637 118 716 173 783 249 c 5
 461 679 l 5
 407 640 l 6
 361 607 236 530 236 372 c 4xb4
  Spiro
    236 372 o
    264.83 250.261 o
    355.234 155.781 o
    512 118 o
    622.828 135.041 o
    710.82 181.317 o
    783 249 v
    461 679 v
    407 640 ]
    342.298 591.029 o
    270.05 504.262 o
    0 0 z
  EndSpiro
EndSplineSet
EndChar
StartChar: quotesingle
Encoding: 39 39 94
GlifName: quotesingle
Width: 1140
Flags: W
HStem: 1006 424<111 209>
VStem: 60 200<1044.25 1415.18> 111 98<1006 1092.65>
LayerCount: 2
Back
Fore
SplineSet
60 1330 m 4xc0
 60 1389 101 1430 160 1430 c 4
 219 1430 260 1389 260 1330 c 4xc0
 260 1313 257 1295 254 1278 c 6
 209 1006 l 5
 111 1006 l 5xa0
 66 1278 l 6
 63 1295 60 1313 60 1330 c 4xc0
EndSplineSet
EndChar
StartChar: parenleft
Encoding: 40 40 79
GlifName: parenleft
Width: 1140
Flags: W
VStem: 106 140<76.4363 1005.56>
LayerCount: 2
Back
Fore
SplineSet
463 -439 m 5
 539 -351 l 5
 422 -243 338 -103 295 56 c 4
 253 211 246 376 246 541 c 4
 246 706 253 871 295 1026 c 4
 338 1185 422 1325 539 1433 c 5
 463 1521 l 5
 309 1396 207 1227 157 1046 c 4
 112 880 106 708 106 541 c 4
 106 374 111 202 157 36 c 4
 208 -145 309 -314 463 -439 c 5
EndSplineSet
EndChar
StartChar: asterisk
Encoding: 42 42 95
GlifName: asterisk
Width: 1140
VWidth: 0
Flags: W
VStem: 432 141<1105 1416>
LayerCount: 2
Back
Fore
SplineSet
861 1204 m 5
 903 1075 l 5
 609 984 l 5
 796 735 l 5
 678 650 l 5
 502 901 l 5
 326 650 l 5
 208 735 l 5
 395 984 l 5
 100 1075 l 5
 143 1204 l 5
 432 1104 l 5
 427 1416 l 5
 577 1416 l 5
 573 1105 l 5
 861 1204 l 5
EndSplineSet
EndChar
StartChar: comma
Encoding: 44 44 39
GlifName: comma
Width: 1140
Flags: W
HStem: -250 454<185.391 225>
VStem: 120 220<4.77377 184.891>
LayerCount: 2
Back
Fore
SplineSet
230 204 m 4
 295 204 340 159 340 94 c 4
 340 69 335 52 316 0 c 6
 225 -250 l 5
 127 -250 l 5
 184 -7 l 5
 147 7 120 45 120 94 c 4
 120 159 165 204 230 204 c 4
EndSplineSet
EndChar
StartChar: hyphen
Encoding: 45 45 80
GlifName: hyphen
Width: 1140
Flags: W
HStem: 474 134<100 600>
VStem: 100 500<474 608>
LayerCount: 2
Back
Fore
SplineSet
100 474 m 5
 100 608 l 5
 600 608 l 5
 600 474 l 5
 100 474 l 5
EndSplineSet
EndChar
StartChar: slash
Encoding: 47 47 72
GlifName: slash
Width: 1140
VWidth: 0
Flags: W
LayerCount: 2
Back
Fore
SplineSet
657 1416 m 5
 804 1416 l 5
 233 -90 l 5
 86 -90 l 5
 657 1416 l 5
EndSplineSet
EndChar
StartChar: one
Encoding: 49 49 3
GlifName: one
Width: 1140
Flags: W
HStem: 0 21G<398 554>
VStem: 398 156<0 1235>
LayerCount: 2
Back
Fore
SplineSet
554 0 m 5
 398 0 l 5
 398 1235 l 5
 201 1133 l 5
 136 1261 l 5
 436 1416 l 5
 554 1416 l 5
 554 0 l 5
EndSplineSet
EndChar
StartChar: four
Encoding: 52 52 6
GlifName: four
Width: 1140
Flags: W
HStem: 0 21G<722 878> 350 140<289 722 878 998>
VStem: 722 156<0 350 490 840>
LayerCount: 2
Back
Fore
SplineSet
998 490 m 5
 998 350 l 5
 878 350 l 5
 878 0 l 5
 722 0 l 5
 722 350 l 5
 116 350 l 1
 116 451 l 1
 530 1416 l 1
 687 1416 l 1
 289 490 l 1
 722 490 l 5
 722 840 l 5
 878 840 l 5
 878 490 l 5
 998 490 l 5
EndSplineSet
EndChar
StartChar: five
Encoding: 53 53 7
GlifName: five
Width: 1140
Flags: W
HStem: -19 140<355.972 675.617> 731 135<348.469 675.209> 1276 140<336 874>
VStem: 180 156<815 1276> 796 156<250.963 604.707>
LayerCount: 2
Back
Fore
SplineSet
874 1416 m 1
 874 1276 l 1
 336 1276 l 1
 336 815 l 1
 404 850 476 866 559 866 c 0
 773 866 952 686 952 426 c 4
 952 177 785 -19 529 -19 c 4
 363 -19 227 59 141 145 c 5
 240 252 l 5
 309 184 408 121 529 121 c 4
 700 121 796 260 796 426 c 0
 796 600 695 731 529 731 c 0
 442 731 364 702 302 661 c 1
 180 719 l 1
 180 1416 l 1
 874 1416 l 1
EndSplineSet
EndChar
StartChar: six
Encoding: 54 54 8
GlifName: six
Width: 1140
Flags: W
HStem: -19 140<389.401 678.599> 761 130<418.779 678.175>
VStem: 111 156<253.836 627.381> 801 156<253.423 625.558>
LayerCount: 2
Back
Fore
SplineSet
534 761 m 0
 387 761 267 648 267 441 c 0
 267 234 387 121 534 121 c 0
 681 121 801 234 801 441 c 0
 801 648 681 761 534 761 c 0
564 891 m 4
 801 891 957 685 957 441 c 0
 957 187 793 -19 534 -19 c 0
 275 -19 111 188 111 442 c 0
 111 587 164 689 220 796 c 2
 541 1416 l 1
 707 1416 l 1
 417 864 l 5
 462 883 512 891 564 891 c 4
EndSplineSet
EndChar
StartChar: seven
Encoding: 55 55 9
GlifName: seven
Width: 1140
Flags: W
HStem: 0 21G<250 425.245> 1276 140<106 777>
LayerCount: 2
Back
Fore
SplineSet
106 1276 m 5
 106 1416 l 5
 962 1416 l 5
 962 1322 l 5
 417 0 l 5
 250 0 l 5
 777 1276 l 5
 106 1276 l 5
EndSplineSet
EndChar
StartChar: eight
Encoding: 56 56 10
GlifName: eight
Width: 1140
Flags: W
HStem: -19 140<378.858 689.142> 661 140<387.993 680.007> 1295 140<389.715 678.285>
VStem: 111 156<230.183 550.805> 139 156<895.066 1200.19> 773 156<895.066 1200.19> 801 156<230.183 550.805>
LayerCount: 2
Back
Fore
SplineSet
534 1435 m 0xe8
 769 1435 929 1266 929 1048 c 0xec
 929 917 871 805 764 735 c 1
 888 663 957 537 957 391 c 0
 957 159 784 -19 534 -19 c 0
 284 -19 111 159 111 391 c 0xf2
 111 537 180 663 304 735 c 1
 197 805 139 917 139 1048 c 0
 139 1266 299 1435 534 1435 c 0xe8
534 1295 m 0
 395 1295 295 1205 295 1048 c 0
 295 891 395 801 534 801 c 0
 673 801 773 891 773 1048 c 0
 773 1205 673 1295 534 1295 c 0
534 661 m 0
 378 661 267 560 267 391 c 0
 267 222 378 121 534 121 c 0
 690 121 801 222 801 391 c 0xf2
 801 560 690 661 534 661 c 0
EndSplineSet
EndChar
StartChar: nine
Encoding: 57 57 11
GlifName: nine
Width: 1140
Flags: W
HStem: 0 21G<355 536.28> 525 130<395.773 637.29> 1295 140<391.456 676.544>
VStem: 116 156<783.42 1165.76> 796 156<783.46 1165.76>
LayerCount: 2
Back
Fore
SplineSet
534 1435 m 4
 791 1435 952 1228 952 975 c 4
 952 839 907 741 856 642 c 6
 526 0 l 5
 355 0 l 5
 641 550 l 5
 596 532 553 525 504 525 c 4
 264 525 116 737 116 975 c 4
 116 1228 277 1435 534 1435 c 4
534 1295 m 4
 390 1295 272 1183 272 975 c 4
 272 767 390 655 534 655 c 4
 678 655 796 767 796 975 c 4
 796 1183 678 1295 534 1295 c 4
EndSplineSet
EndChar
StartChar: colon
Encoding: 58 58 12
GlifName: colon
Width: 1140
Flags: W
HStem: -16 220<139.109 320.891> 881 220<139.109 320.891>
VStem: 120 220<3.10925 184.891 900.109 1081.89>
LayerCount: 2
Back
Fore
SplineSet
230 204 m 4
 295 204 340 159 340 94 c 4
 340 29 295 -16 230 -16 c 4
 165 -16 120 29 120 94 c 4
 120 159 165 204 230 204 c 4
230 1101 m 4
 295 1101 340 1056 340 991 c 4
 340 926 295 881 230 881 c 4
 165 881 120 926 120 991 c 4
 120 1056 165 1101 230 1101 c 4
EndSplineSet
EndChar
StartChar: semicolon
Encoding: 59 59 40
GlifName: semicolon
Width: 1140
Flags: W
HStem: 881 220<139.109 320.891>
VStem: 120 220<4.77377 184.891 900.109 1081.89>
LayerCount: 2
Back
Fore
SplineSet
230 1101 m 0
 295 1101 340 1056 340 991 c 0
 340 926 295 881 230 881 c 0
 165 881 120 926 120 991 c 0
 120 1056 165 1101 230 1101 c 0
230 204 m 0
 295 204 340 159 340 94 c 0
 340 69 335 52 316 0 c 2
 225 -250 l 1
 127 -250 l 1
 184 -7 l 1
 147 7 120 45 120 94 c 0
 120 159 165 204 230 204 c 0
EndSplineSet
EndChar
StartChar: less
Encoding: 60 60 105
GlifName: less
Width: 1140
Flags: W
VStem: 140 677
LayerCount: 2
Back
Fore
SplineSet
140 597 m 5
 748 951 l 5
 817 831 l 5
 307 541 l 5
 817 251 l 5
 748 131 l 5
 140 485 l 5
 140 597 l 5
EndSplineSet
EndChar
StartChar: equal
Encoding: 61 61 82
GlifName: equal
Width: 1140
Flags: W
HStem: 314 134<140 840> 634 134<140 840>
LayerCount: 2
Back
Fore
SplineSet
140 634 m 5
 140 768 l 5
 840 768 l 5
 840 634 l 5
 140 634 l 5
140 314 m 5
 140 448 l 5
 840 448 l 5
 840 314 l 5
 140 314 l 5
EndSplineSet
EndChar
StartChar: greater
Encoding: 62 62 106
GlifName: greater
Width: 1140
Flags: W
VStem: 106 677
LayerCount: 2
Back
Fore
SplineSet
783 597 m 5
 783 485 l 5
 175 131 l 5
 106 251 l 5
 616 541 l 5
 106 831 l 5
 175 951 l 5
 783 597 l 5
EndSplineSet
EndChar
StartChar: A
Encoding: 65 65 13
GlifName: A_
Width: 1140
Flags: W
HStem: 0 21G<30 199.491 970.509 1140> 342 140<350 820>
AnchorPoint: "DoubleTop" -41 0 basechar 0
AnchorPoint: "Apos" -41 0 basechar 0
AnchorPoint: "Center" 585 1380 basechar 0
AnchorPoint: "Bottom" 1065 0 basechar 0
AnchorPoint: "Top" 585 1416 basechar 0
LayerCount: 2
Back
Fore
SplineSet
820 482 m 5
 585 1205 l 5
 350 482 l 5
 820 482 l 5
510 1416 m 5
 660 1416 l 5
 1140 0 l 5
 977 0 l 5
 866 342 l 5
 304 342 l 5
 193 0 l 5
 30 0 l 5
 510 1416 l 5
EndSplineSet
EndChar
StartChar: D
Encoding: 68 68 17
GlifName: D_
Width: 1140
Flags: W
HStem: 0 140<312 688.909> 1276 140<312 688.909>
VStem: 156 156<140 1276> 906 157<367.155 1048.83>
AnchorPoint: "DoubleTop" -10 0 basechar 0
AnchorPoint: "Apos" -10 0 basechar 0
AnchorPoint: "Center" -20 0 basechar 0
AnchorPoint: "Bottom" 557 0 basechar 0
AnchorPoint: "Top" 563 1416 basechar 0
LayerCount: 2
Back
Fore
SplineSet
384 1276 m 2
 312 1276 l 1
 312 140 l 1
 384 140 l 2
 529 140 690 140 796 262 c 0
 906 389 906 538 906 707 c 0
 906 878 906 1027 796 1154 c 0
 690 1276 529 1276 384 1276 c 2
385 1416 m 2
 561 1416 763 1416 922 1237 c 0
 1063 1078 1063 864 1063 708 c 0
 1063 552 1063 338 922 179 c 0
 763 0 561 0 385 0 c 2
 156 0 l 1
 156 1416 l 5
 385 1416 l 2
EndSplineSet
EndChar
StartChar: E
Encoding: 69 69 18
GlifName: E_
Width: 1140
Flags: W
HStem: 0 140<312 936> 652 140<312 856> 1276 140<312 936>
VStem: 156 156<140 652 792 1276>
AnchorPoint: "Bottom" 861 0 basechar 0
AnchorPoint: "Top" 553 1416 basechar 0
LayerCount: 2
Back
Fore
SplineSet
156 1416 m 5
 936 1416 l 5
 936 1276 l 5
 312 1276 l 5
 312 792 l 5
 856 792 l 5
 856 652 l 5
 312 652 l 5
 312 140 l 5
 936 140 l 5
 936 0 l 5
 156 0 l 5
 156 1416 l 5
EndSplineSet
EndChar
StartChar: F
Encoding: 70 70 19
GlifName: F_
Width: 1140
Flags: W
HStem: 0 21G<156 312> 652 140<312 836> 1276 140<312 916>
VStem: 156 156<0 652 792 1276>
LayerCount: 2
Back
Fore
SplineSet
156 1416 m 1
 916 1416 l 1
 916 1276 l 1
 312 1276 l 1
 312 792 l 5
 836 792 l 5
 836 652 l 5
 312 652 l 5
 312 0 l 1
 156 0 l 1
 156 1416 l 1
EndSplineSet
EndChar
StartChar: H
Encoding: 72 72 20
GlifName: H_
Width: 1140
VWidth: 0
Flags: W
HStem: 0 21G<156 312 920 1076> 652 140<312 920>
VStem: 156 156<0 652 792 1416> 920 156<0 652 792 1416>
AnchorPoint: "DoubleTop" 2 0 basechar 0
AnchorPoint: "Apos" 2 0 basechar 0
AnchorPoint: "Center" -8 0 basechar 0
AnchorPoint: "Bottom" 606 0 basechar 0
AnchorPoint: "Top" 616 1416 basechar 0
LayerCount: 2
Back
Fore
SplineSet
156 1416 m 5
 312 1416 l 5
 312 792 l 5
 920 792 l 5
 920 1416 l 5
 1076 1416 l 5
 1076 0 l 5
 920 0 l 5
 920 652 l 5
 312 652 l 5
 312 0 l 5
 156 0 l 5
 156 1416 l 5
EndSplineSet
EndChar
StartChar: I
Encoding: 73 73 21
GlifName: I_
Width: 1140
VWidth: 0
Flags: W
HStem: 0 21G<156 312>
VStem: 156 156<0 1416>
AnchorPoint: "DoubleTop" 6 0 basechar 0
AnchorPoint: "Apos" 6 0 basechar 0
AnchorPoint: "Center" -4 0 basechar 0
AnchorPoint: "Bottom" 233 0 basechar 0
AnchorPoint: "Top" 234 1416 basechar 0
LayerCount: 2
Back
Fore
SplineSet
312 1416 m 1
 312 0 l 1
 156 0 l 1
 156 1416 l 1
 312 1416 l 1
EndSplineSet
EndChar
StartChar: J
Encoding: 74 74 22
GlifName: J_
Width: 1140
Flags: W
HStem: -19 140<230.15 546.621>
VStem: 632 156<206.37 1416>
AnchorPoint: "DoubleTop" 2 0 basechar 0
AnchorPoint: "Apos" 2 0 basechar 0
AnchorPoint: "Center" 2 0 basechar 0
AnchorPoint: "Bottom" 385 0 basechar 0
AnchorPoint: "Top" 710 1416 basechar 0
LayerCount: 2
Back
Fore
SplineSet
632 1416 m 1
 788 1416 l 1
 788 434 l 2
 788 320 788 217 706 115 c 0
 643 37 537 -19 405 -19 c 0
 275 -19 153 33 66 94 c 1
 146 214 l 1
 209 169 308 121 405 121 c 0
 481 121 540 149 580 197 c 0
 632 260 632 337 632 434 c 2
 632 1416 l 1
EndSplineSet
EndChar
StartChar: M
Encoding: 77 77 27
GlifName: M_
Width: 1140
VWidth: 0
Flags: W
HStem: 0 21G<156 312 1134 1290>
VStem: 156 156<0 1122> 1134 156<0 1122>
LayerCount: 2
Back
Fore
SplineSet
156 0 m 1
 156 1416 l 1
 312 1416 l 1
 723 577 l 1
 1134 1416 l 1
 1290 1416 l 1
 1290 0 l 1
 1134 0 l 1
 1134 1122 l 1
 794 421 l 1
 652 421 l 1
 312 1122 l 5
 312 0 l 1
 156 0 l 1
EndSplineSet
EndChar
StartChar: O
Encoding: 79 79 16
GlifName: O_
Width: 1140
VWidth: 0
Flags: W
HStem: -19 140<438.945 789.055> 1295 140<438.945 789.055>
VStem: 116 156<311.742 1104.26> 956 156<311.742 1104.26>
AnchorPoint: "Top" 614 1416 basechar 0
LayerCount: 2
Back
Fore
SplineSet
614 1435 m 4
 830 1435 977 1329 1046 1180 c 4
 1112 1038 1112 856 1112 708 c 4
 1112 560 1112 378 1046 236 c 4
 977 87 830 -19 614 -19 c 4
 398 -19 251 87 182 236 c 4
 116 378 116 560 116 708 c 4
 116 856 116 1038 182 1180 c 4
 251 1329 398 1435 614 1435 c 4
614 1295 m 4
 469 1295 373 1229 326 1127 c 4
 273 1012 272 850 272 708 c 4
 272 566 273 404 326 289 c 4
 373 187 469 121 614 121 c 4
 759 121 855 187 902 289 c 4
 955 404 956 566 956 708 c 4
 956 850 955 1012 902 1127 c 4
 855 1229 759 1295 614 1295 c 4
EndSplineSet
EndChar
StartChar: P
Encoding: 80 80 31
GlifName: P_
Width: 1140
Flags: W
HStem: 0 21G<156 312> 516 140<312 708.238> 1276 140<312 708.238>
VStem: 156 156<0 516 656 1276> 846 156<795.699 1136.3>
LayerCount: 2
Back
Fore
SplineSet
156 1416 m 5
 434 1416 l 6
 579 1416 765 1416 897 1264 c 4
 971 1179 1002 1070 1002 966 c 4
 1002 862 971 753 897 668 c 4
 765 516 579 516 434 516 c 6
 312 516 l 5
 312 0 l 5
 156 0 l 5
 156 1416 l 5
434 656 m 6
 575 656 688 657 773 754 c 4
 820 808 846 887 846 966 c 4
 846 1045 820 1124 773 1178 c 4
 688 1275 575 1276 434 1276 c 6
 312 1276 l 5
 312 656 l 5
 434 656 l 6
EndSplineSet
EndChar
StartChar: R
Encoding: 82 82 32
GlifName: R_
Width: 1140
Flags: W
HStem: 0 21G<156 312 850.791 1028> 556 140<312 604> 1276 140<312 719.568>
VStem: 156 156<0 556 696 1276> 846 156<821.96 1151.69>
AnchorPoint: "DoubleTop" 10 0 basechar 0
AnchorPoint: "Apos" 10 0 basechar 0
AnchorPoint: "Center" 0 0 basechar 0
AnchorPoint: "Bottom" 577 0 basechar 0
AnchorPoint: "Top" 532 1416 basechar 0
LayerCount: 2
Back
Fore
SplineSet
312 696 m 5
 434 696 l 6
 587 696 700 696 783 794 c 4
 826 845 846 919 846 986 c 4
 846 1058 824 1129 783 1178 c 4
 700 1276 587 1276 434 1276 c 6
 312 1276 l 5
 312 696 l 5
156 1416 m 5
 434 1416 l 6
 595 1416 777 1416 907 1263 c 4
 975 1183 1002 1082 1002 986 c 4
 1002 812 910 661 753 598 c 5
 1028 0 l 5
 860 0 l 5
 604 556 l 5
 312 556 l 5
 312 0 l 5
 156 0 l 5
 156 1416 l 5
EndSplineSet
EndChar
StartChar: T
Encoding: 84 84 29
GlifName: T_
Width: 1140
VWidth: 0
Flags: W
HStem: 0 21G<472 628> 1277 140<86 472 628 1014>
VStem: 472 156<0 1277>
AnchorPoint: "DoubleTop" -24 0 basechar 0
AnchorPoint: "Apos" -24 0 basechar 0
AnchorPoint: "Center" 48 0 basechar 0
AnchorPoint: "Bottom" 550 0 basechar 0
AnchorPoint: "Top" 550 1416 basechar 0
LayerCount: 2
Back
Fore
SplineSet
86 1417 m 5
 1014 1417 l 5
 1014 1277 l 5
 628 1277 l 5
 628 0 l 5
 472 0 l 5
 472 1277 l 5
 86 1277 l 5
 86 1417 l 5
EndSplineSet
EndChar
StartChar: V
Encoding: 86 86 25
GlifName: V_
Width: 1140
Flags: W
HStem: 0 21G<503.22 666.78>
LayerCount: 2
Back
Fore
SplineSet
30 1416 m 5
 193 1416 l 5
 585 211 l 5
 977 1416 l 5
 1140 1416 l 5
 660 0 l 5
 510 0 l 5
 30 1416 l 5
EndSplineSet
EndChar
StartChar: X
Encoding: 88 88 36
GlifName: X_
Width: 1140
Flags: W
HStem: 0 21G<66 251.769 874.231 1060>
LayerCount: 2
Back
Fore
SplineSet
81 1416 m 5
 256 1416 l 1
 563 846 l 1
 870 1416 l 1
 1045 1416 l 1
 651 722 l 1
 1060 0 l 1
 885 0 l 1
 563 598 l 1
 241 0 l 1
 66 0 l 1
 475 722 l 1
 81 1416 l 5
EndSplineSet
EndChar
StartChar: Z
Encoding: 90 90 38
GlifName: Z_
Width: 1140
VWidth: 0
Flags: W
HStem: 0 140<282 963> 1276 140<121 757>
AnchorPoint: "DoubleTop" -21 0 basechar 0
AnchorPoint: "Apos" -21 0 basechar 0
AnchorPoint: "Center" -11 0 basechar 0
AnchorPoint: "Bottom" 530 0 basechar 0
AnchorPoint: "Top" 530 1416 basechar 0
LayerCount: 2
Back
Fore
SplineSet
121 1276 m 1
 121 1416 l 1
 943 1416 l 1
 943 1315 l 1
 282 140 l 1
 963 140 l 1
 963 0 l 1
 96 0 l 1
 96 101 l 1
 757 1276 l 1
 121 1276 l 1
EndSplineSet
EndChar
StartChar: bracketleft
Encoding: 91 91 71
GlifName: bracketleft
Width: 1140
VWidth: 0
Flags: W
HStem: -456 124<296 488> 1414 124<296 488>
VStem: 156 332<-456 -332 1414 1538> 156 140<-332 1414>
LayerCount: 2
Back
Fore
SplineSet
156 1538 m 5xe0
 488 1538 l 5
 488 1414 l 5xe0
 296 1414 l 5
 296 -332 l 5xd0
 488 -332 l 5
 488 -456 l 5
 156 -456 l 5
 156 1538 l 5xe0
EndSplineSet
EndChar
StartChar: backslash
Encoding: 92 92 66
GlifName: backslash
Width: 1140
VWidth: 0
Flags: W
LayerCount: 2
Back
Fore
SplineSet
86 1416 m 1
 233 1416 l 1
 804 -90 l 1
 657 -90 l 1
 86 1416 l 1
EndSplineSet
EndChar
StartChar: bracketright
Encoding: 93 93 49
GlifName: bracketright
Width: 1140
VWidth: 0
Flags: W
HStem: -456 124<126 318> 1414 124<126 318>
VStem: 126 332<-456 -332 1414 1538> 318 140<-332 1414>
LayerCount: 2
Back
Fore
SplineSet
458 1538 m 5xe0
 458 -456 l 5
 126 -456 l 5
 126 -332 l 5xe0
 318 -332 l 5
 318 1414 l 5xd0
 126 1414 l 5
 126 1538 l 5
 458 1538 l 5xe0
EndSplineSet
EndChar
StartChar: asciicircum
Encoding: 94 94 112
GlifName: asciicircum
Width: 1140
Flags: W
HStem: 1222 274
VStem: 100 622
AnchorPoint: "Top" 411 1082 mark 0
LayerCount: 2
Back
Fore
SplineSet
551 1222 m 1
 411 1360 l 1
 271 1222 l 1
 100 1222 l 1
 358 1496 l 1
 464 1496 l 1
 722 1222 l 1
 551 1222 l 1
EndSplineSet
EndChar
StartChar: underscore
Encoding: 95 95 129
GlifName: underscore
Width: 1140
Flags: W
HStem: -150 150<10 790>
LayerCount: 2
Back
Fore
SplineSet
10 0 m 1
 790 0 l 1
 790 -150 l 5
 10 -150 l 5
 10 0 l 1
EndSplineSet
EndChar
StartChar: grave
Encoding: 96 96 110
GlifName: grave
Width: 1140
Flags: W
HStem: 1222 274<265 269>
VStem: 100 323
AnchorPoint: "Top" 330 1082 mark 0
LayerCount: 2
Back
Fore
SplineSet
100 1496 m 5
 269 1496 l 5
 423 1222 l 5
 265 1222 l 5
 100 1496 l 5
EndSplineSet
EndChar
StartChar: a
Encoding: 97 97 489
GlifName: a
Width: 1140
Flags: W
HStem: -16 134<365.342 657.625> 0 21G<760 910> 527 124<368.153 760> 964 134<326.71 675.386>
VStem: 140 150<189.963 453.43> 760 150<0 112 224.818 527 651 879.441>
AnchorPoint: "Top" 525 1082 basechar 0
AnchorPoint: "Bottom" 835 0 basechar 0
AnchorPoint: "Center" 525 1062 basechar 0
LayerCount: 2
Back
Fore
SplineSet
525 1098 m 4xbc
 655 1098 761.724097824 1046.7631612 827 971 c 4
 910 874.665178571 910 778.222287736 910 681 c 6
 910 0 l 5
 760 0 l 5x7c
 760 112 l 5
 700 26 605 -16 485 -16 c 4
 299.377153557 -16 140 119.096297221 140 321 c 4
 140 427 187 510 249 563 c 4
 352 651 477 651 615 651 c 6
 760 651 l 5
 760 716 l 6
 760 757 760 826 712 885 c 4
 672 934 607.320652174 964 525 964 c 4
 431.811023622 964 336.551181102 927.5 262 891 c 5
 205 1015 l 5
 293.780487805 1056.44318182 404.146341463 1098 525 1098 c 4xbc
290 321 m 4
 290 193.118923282 381.434155726 118 505 118 c 4xbc
 593 118 663.085874941 152.934906172 704 207 c 4
 760 281 760 382 760 468 c 6
 760 527 l 5
 615 527 l 6
 490 527 416 527 357 477 c 4
 319 445 290 389 290 321 c 4
EndSplineSet
AlternateSubs2: "'salt' 0-1" aAlt
EndChar
StartChar: b
Encoding: 98 98 54
GlifName: b
Width: 1140
Flags: W
HStem: -16 134<411.127 709.457> 0 21G<145 295> 964 134<411.115 709.674>
VStem: 145 150<0 117 241.242 840.758 967 1496> 825 150<242.001 839.569>
LayerCount: 2
Back
Fore
SplineSet
560 964 m 4xb8
 467 964 396 923 355 865 c 4
 296 782 295 664 295 541 c 4
 295 418 296 300 355 217 c 4
 396 159 467 118 560 118 c 4
 653 118 724 159 765 217 c 4
 824 300 825 418 825 541 c 4
 825 664 824 782 765 865 c 4
 724 923 653 964 560 964 c 4xb8
295 1496 m 5
 295 967 l 5
 365 1053 453 1098 580 1098 c 4
 724 1098 832 1030 895 938 c 4
 972 819 975 674 975 541 c 4
 975 408 975 261 895 144 c 4
 830 53 724 -16 580 -16 c 4xb8
 452 -16 366 31 295 117 c 5
 295 0 l 5
 145 0 l 5x78
 145 1496 l 5
 295 1496 l 5
EndSplineSet
EndChar
StartChar: c
Encoding: 99 99 53
GlifName: c
Width: 1140
Flags: W
HStem: -16 134<404.816 739.43> 964 134<405.045 730.051>
VStem: 140 150<243.538 837.921>
AnchorPoint: "Bottom" 550 0 basechar 0
AnchorPoint: "Top" 550 1082 basechar 0
LayerCount: 2
Back
Fore
SplineSet
550 1098 m 0
 675.693693694 1098 791.567567568 1050.41346154 877 997 c 1
 806 879 l 1
 737.667985676 922.5625 644.315789474 964 550 964 c 0
 442 964 384 914 346 859 c 0
 290 777 290 645 290 547 c 0
 290 429 290 315 341 230 c 0
 391 147 475 118 550 118 c 0
 647.204545455 118 754.784090909 161.953488372 823 208 c 1
 899 94 l 1
 809.538028169 33.6194690265 675.836619718 -16 550 -16 c 0
 392 -16 269 63 209 167 c 0
 141 285 140 405 140 547 c 0
 140 664 141 800 209 915 c 0
 271 1018 389 1098 550 1098 c 0
EndSplineSet
EndChar
StartChar: d
Encoding: 100 100 48
GlifName: d
Width: 1140
Flags: W
HStem: -16 134<390.543 688.873> 0 21G<805 955> 964 134<390.326 688.885>
VStem: 125 150<242.001 839.569> 805 150<0 117 241.242 840.758 967 1496>
AnchorPoint: "Apos" 1054 1496 basechar 0
AnchorPoint: "Bottom" 520 0 basechar 0
LayerCount: 2
Back
Fore
SplineSet
540 964 m 4xb8
 447 964 376 923 335 865 c 4
 276 782 275 664 275 541 c 4
 275 418 276 300 335 217 c 4
 376 159 447 118 540 118 c 4
 633 118 704 159 745 217 c 4
 804 300 805 418 805 541 c 4
 805 664 804 782 745 865 c 4
 704 923 633 964 540 964 c 4xb8
805 1496 m 5
 955 1496 l 5
 955 0 l 5
 805 0 l 5x78
 805 117 l 5
 734 31 648 -16 520 -16 c 4
 376 -16 270 53 205 144 c 4
 125 261 125 408 125 541 c 4
 125 674 128 819 205 938 c 4
 268 1030 376 1098 520 1098 c 4
 647 1098 735 1053 805 967 c 5
 805 1496 l 5
EndSplineSet
EndChar
StartChar: g
Encoding: 103 103 58
GlifName: g
Width: 1140
Flags: W
HStem: -427 134<264.936 661.785> -16 134<365.326 663.873> 964 134<365.326 663.885>
VStem: 100 150<242.001 839.999> 780 150<-174.982 117 241.242 840.758 967 1082>
AnchorPoint: "DoubleTop" 0 0 basechar 0
AnchorPoint: "Apos" 0 0 basechar 0
AnchorPoint: "Center" 0 0 basechar 0
AnchorPoint: "Bottom" 495 -414 basechar 0
AnchorPoint: "Top" 495 1082 basechar 0
LayerCount: 2
Back
Fore
SplineSet
495 1098 m 4
 622 1098 710 1053 780 967 c 5
 780 1082 l 5
 930 1082 l 5
 930 80 l 6
 930 -41 930 -155 851 -263 c 4
 780 -361 656 -427 495 -427 c 4
 377.087719298 -427 253.315789474 -392.933333333 159 -354 c 5
 209 -228 l 5
 288.215827338 -261.015873016 395.165163644 -293 495 -293 c 4
 601 -293 680 -253 726 -189 c 4
 780 -115 780 -29 780 80 c 6
 780 117 l 5
 709 31 623 -16 495 -16 c 4
 351 -16 243 52 180 144 c 4
 100 261 100 408 100 541 c 4
 100 674 100 821 180 938 c 4
 243 1030 351 1098 495 1098 c 4
515 964 m 4
 422 964 351 923 310 865 c 4
 251 782 250 664 250 541 c 4
 250 418 251 300 310 217 c 4
 351 159 422 118 515 118 c 4
 608 118 679 159 720 217 c 4
 779 300 780 418 780 541 c 4
 780 664 779 782 720 865 c 4
 679 923 608 964 515 964 c 4
EndSplineSet
EndChar
StartChar: i
Encoding: 105 105 51
GlifName: i
Width: 1140
VWidth: 0
Flags: W
HStem: 0 21G<140 290> 1247 188<133.891 296.109>
VStem: 121 188<1259.89 1422.11> 140 150<0 1082>
AnchorPoint: "Top" 27 47 basechar 0
AnchorPoint: "Bottom" 215 0 basechar 0
AnchorPoint: "Center" -12 0 basechar 0
AnchorPoint: "Apos" -12 0 basechar 0
AnchorPoint: "DoubleTop" -12 0 basechar 0
LayerCount: 2
Back
Fore
SplineSet
215 1435 m 4xe0
 270 1435 309 1396 309 1341 c 4
 309 1286 270 1247 215 1247 c 4
 160 1247 121 1286 121 1341 c 4
 121 1396 160 1435 215 1435 c 4xe0
290 0 m 1xd0
 140 0 l 1
 140 1082 l 1
 290 1082 l 1
 290 0 l 1xd0
EndSplineSet
EndChar
StartChar: j
Encoding: 106 106 60
GlifName: j
Width: 1140
VWidth: 0
Flags: W
HStem: -428 134<-45.3489 123.635> 1247 188<133.891 296.109>
VStem: 121 188<1259.89 1422.11> 140 150<-252.784 1082>
AnchorPoint: "Top" 27 47 basechar 0
AnchorPoint: "Bottom" 45 -414 basechar 0
AnchorPoint: "Center" -12 0 basechar 0
AnchorPoint: "Apos" -12 0 basechar 0
AnchorPoint: "DoubleTop" -12 0 basechar 0
LayerCount: 2
Back
Fore
SplineSet
290 -119 m 2xd0
 290 -206 290 -256 257 -315 c 0
 218 -385 141 -428 45 -428 c 0
 -1.09523809524 -428 -40.4682539683 -419.857142857 -76 -409 c 1
 -38 -279 l 5
 -13.5256410256 -287.076923077 15.2051282051 -294 45 -294 c 0
 84 -294 108 -280 123 -254 c 0
 138 -228 140 -206 140 -119 c 2
 140 1082 l 1
 290 1082 l 1
 290 -119 l 2xd0
215 1435 m 0
 270 1435 309 1396 309 1341 c 0
 309 1286 270 1247 215 1247 c 0
 160 1247 121 1286 121 1341 c 0xe0
 121 1396 160 1435 215 1435 c 0
EndSplineSet
EndChar
StartChar: l
Encoding: 108 108 50
GlifName: l
Width: 1140
VWidth: 0
Flags: W
HStem: 0 21G<140 290>
VStem: 140 150<0 1496>
AnchorPoint: "DoubleTop" 22 0 basechar 0
AnchorPoint: "Center" 290 722 basechar 0
AnchorPoint: "Apos" 389 1496 basechar 0
AnchorPoint: "Bottom" 215 0 basechar 0
AnchorPoint: "Top" 215 1456 basechar 0
LayerCount: 2
Back
Fore
SplineSet
290 0 m 5
 140 0 l 5
 140 1496 l 5
 290 1496 l 5
 290 0 l 5
EndSplineSet
EndChar
StartChar: m
Encoding: 109 109 46
GlifName: m
Width: 1140
VWidth: 0
Flags: W
HStem: 0 21G<140 290 740 890 1340 1490> 964 134<375.494 657.198 974.488 1257.44>
VStem: 140 150<0 875.471 975 1082> 740 150<0 875.471> 1340 150<0 878.329>
CounterMasks: 1 38
LayerCount: 2
Back
Fore
SplineSet
831 930 m 5
 892 1038 1000 1098 1135 1098 c 0
 1261 1098 1364 1042 1420 961 c 0
 1490 860 1490 750 1490 616 c 2
 1490 0 l 1
 1340 0 l 1
 1340 616 l 2
 1340 735 1340 819 1293 885 c 0
 1258 934 1193 964 1115 964 c 0
 1038 964 976 933 940 885 c 0
 890 818 890 735 890 616 c 2
 890 0 l 1
 740 0 l 1
 740 616 l 2
 740 735 740 819 693 885 c 0
 658 934 593 964 515 964 c 0
 438 964 376 933 340 885 c 0
 290 818 290 735 290 616 c 2
 290 0 l 1
 140 0 l 1
 140 1082 l 1
 290 1082 l 1
 290 975 l 1
 353 1060 438 1098 535 1098 c 0
 666 1098 773 1039 831 930 c 5
EndSplineSet
EndChar
StartChar: n
Encoding: 110 110 57
GlifName: n
Width: 1140
Flags: W
HStem: 0 21G<140 290 780 930> 964 134<387.919 686.233>
VStem: 140 150<0 864.073 970 1082> 780 150<0 867.577>
AnchorPoint: "Top" 555 1082 basechar 0
LayerCount: 2
Back
Fore
SplineSet
555 1098 m 4
 693 1098 800 1036 861 948 c 4
 930 844 930 731 930 586 c 6
 930 0 l 5
 780 0 l 5
 780 586 l 6
 780 722 780 806 732 874 c 4
 693 929 623 964 535 964 c 4
 448 964 380 928 341 874 c 4
 290 804 290 722 290 586 c 6
 290 0 l 5
 140 0 l 5
 140 1082 l 5
 290 1082 l 5
 290 970 l 5
 358 1053 448 1098 555 1098 c 4
EndSplineSet
EndChar
StartChar: q
Encoding: 113 113 63
GlifName: q
Width: 1140
Flags: W
HStem: -16 134<365.543 663.873> 964 134<365.326 663.885>
VStem: 100 150<242.001 839.569> 780 150<-414 117 241.242 840.758 967 1082>
LayerCount: 2
Back
Fore
SplineSet
515 964 m 0
 422 964 351 923 310 865 c 0
 251 782 250 664 250 541 c 0
 250 418 251 300 310 217 c 0
 351 159 422 118 515 118 c 0
 608 118 679 159 720 217 c 0
 779 300 780 418 780 541 c 0
 780 664 779 782 720 865 c 0
 679 923 608 964 515 964 c 0
495 1098 m 0
 622 1098 710 1053 780 967 c 1
 780 1082 l 1
 930 1082 l 1
 930 -414 l 1
 780 -414 l 1
 780 117 l 1
 709 31 623 -16 495 -16 c 0
 351 -16 245 53 180 144 c 0
 100 261 100 408 100 541 c 0
 100 674 103 819 180 938 c 0
 243 1030 351 1098 495 1098 c 0
EndSplineSet
EndChar
StartChar: s
Encoding: 115 115 47
GlifName: s
Width: 1140
VWidth: 0
Flags: W
HStem: -16 134<220.497 604.49> 964 134<298.531 660.475>
VStem: 85 150<690.831 902.957> 681 150<191.009 411.927>
AnchorPoint: "DoubleTop" 0 0 basechar 0
AnchorPoint: "Apos" 0 0 basechar 0
AnchorPoint: "Center" 0 0 basechar 0
AnchorPoint: "Bottom" 446 0 basechar 0
AnchorPoint: "Top" 446 1082 basechar 0
LayerCount: 2
Back
Fore
SplineSet
446 1098 m 0
 570 1098 692 1057 789 1016 c 1
 738 889 l 1
 651 926 547 964 446 964 c 0
 281 964 235 859 235 796 c 0
 235 725 281.081820756 675.180574248 332 652 c 0
 414.635801014 614.379932876 499 629 623 583 c 0
 729.557195235 543.470717897 831 445 831 301 c 0
 831 144 699 -16 446 -16 c 0
 309 -16 174 30 68 77 c 1
 122 202 l 1
 215 160 328 118 446 118 c 0
 619 118 681 221 681 301 c 0
 681 382 625.309395821 437.815108532 563 461 c 0
 477 493 372 483 262 534 c 0
 167.839789931 577.656097396 85 669 85 796 c 0
 85 952 218 1098 446 1098 c 0
EndSplineSet
EndChar
StartChar: t
Encoding: 116 116 64
GlifName: t
Width: 1140
Flags: W
HStem: -16 134<395.657 604.948> 958 124<80 230 380 580>
VStem: 230 150<174.027 958 1082 1316>
AnchorPoint: "DoubleTop" -20 0 basechar 0
AnchorPoint: "Apos" 688 1494 basechar 0
AnchorPoint: "Top" 10 0 basechar 0
AnchorPoint: "Center" 10 0 basechar 0
AnchorPoint: "Bottom" 473 0 basechar 0
LayerCount: 2
Back
Fore
SplineSet
475 118 m 4
 516 118 557 134 589 149 c 5
 647 26 l 5
 596 2 535 -16 475 -16 c 4
 347 -16 264 64 240 150 c 4
 230 186 230 208 230 340 c 6
 230 958 l 5
 80 958 l 5
 80 1082 l 5
 230 1082 l 5
 230 1316 l 5
 380 1316 l 5
 380 1082 l 5
 580 1082 l 5
 580 958 l 5
 380 958 l 5
 380 380 l 6
 380 211 380 195 389 173 c 4
 404 135 438 118 475 118 c 4
EndSplineSet
EndChar
StartChar: u
Encoding: 117 117 65
GlifName: u
Width: 1140
Flags: W
HStem: -16 134<365.617 664.383>
VStem: 120 150<220.243 1082> 760 150<220.243 1082>
AnchorPoint: "Apos" -14 78 basechar 0
AnchorPoint: "Center" 515 1202 basechar 0
AnchorPoint: "Bottom" 515 0 basechar 0
AnchorPoint: "Top" 515 1082 basechar 0
LayerCount: 2
Back
Fore
SplineSet
120 1082 m 1
 270 1082 l 1
 270 531 l 2
 270 360 270 276 322 206 c 0
 360 154 427 118 515 118 c 0
 603 118 670 154 708 206 c 0
 760 276 760 360 760 531 c 2
 760 1082 l 1
 910 1082 l 1
 910 521 l 2
 910 344 909 240 836 136 c 0
 775 50 661 -16 515 -16 c 0
 369 -16 255 50 194 136 c 0
 121 240 120 344 120 521 c 2
 120 1082 l 1
EndSplineSet
EndChar
StartChar: x
Encoding: 120 120 68
GlifName: x
Width: 1140
VWidth: 0
Flags: W
HStem: 0 21G<50 230.211 679.789 860>
LayerCount: 2
Back
Fore
SplineSet
860 0 m 5
 691 0 l 5
 455 421 l 5
 219 0 l 5
 50 0 l 5
 370 545 l 5
 55 1082 l 5
 224 1082 l 5
 455 669 l 5
 686 1082 l 5
 855 1082 l 5
 540 545 l 5
 860 0 l 5
EndSplineSet
EndChar
StartChar: y
Encoding: 121 121 69
GlifName: y
Width: 1140
Flags: W
AnchorPoint: "DoubleTop" -74 0 basechar 0
AnchorPoint: "Apos" -74 0 basechar 0
AnchorPoint: "Top" 474 1082 basechar 0
AnchorPoint: "Center" -94 0 basechar 0
AnchorPoint: "Bottom" -94 0 basechar 0
LayerCount: 2
Back
Fore
SplineSet
452 -414 m 1
 307 -414 l 1
 432 -2 l 1
 40 1082 l 1
 197 1082 l 1
 500 194 l 1
 752 1082 l 1
 907 1082 l 1
 452 -414 l 1
EndSplineSet
EndChar
StartChar: braceleft
Encoding: 123 123 75
GlifName: braceleft
Width: 1140
Flags: W
VStem: 261 140<-227.307 386.359 695.641 1309.31>
LayerCount: 2
Back
Fore
SplineSet
254 541 m 5
 350 462 411 346 411 174 c 4
 411 102 401 35 401 -27 c 4
 401 -198 472 -297 563 -346 c 5
 520 -444 l 5
 360 -376 261 -241 261 -27 c 4
 261 45 271 112 271 174 c 4
 271 336 206 437 100 485 c 5
 100 597 l 5
 206 645 271 746 271 908 c 4
 271 970 261 1037 261 1109 c 4
 261 1323 360 1458 520 1526 c 5
 563 1428 l 5
 472 1379 401 1280 401 1109 c 4
 401 1047 411 980 411 908 c 4
 411 736 350 620 254 541 c 5
EndSplineSet
EndChar
StartChar: bar
Encoding: 124 124 76
GlifName: bar
Width: 1140
VWidth: 0
Flags: W
VStem: 156 140<-456 1538>
LayerCount: 2
Back
Fore
SplineSet
156 1538 m 5
 296 1538 l 5
 296 -456 l 5
 156 -456 l 5
 156 1538 l 5
EndSplineSet
EndChar
StartChar: braceright
Encoding: 125 125 78
GlifName: braceright
Width: 1140
Flags: W
VStem: 262 140<-227.307 386.359 695.641 1309.31>
LayerCount: 2
Back
Fore
SplineSet
409 541 m 5
 313 620 252 736 252 908 c 4
 252 980 262 1047 262 1109 c 4
 262 1280 191 1379 100 1428 c 5
 143 1526 l 5
 303 1458 402 1323 402 1109 c 4
 402 1037 392 970 392 908 c 4
 392 746 457 645 563 597 c 5
 563 485 l 5
 457 437 392 336 392 174 c 4
 392 112 402 45 402 -27 c 4
 402 -241 303 -376 143 -444 c 5
 100 -346 l 5
 191 -297 262 -198 262 -27 c 4
 262 35 252 102 252 174 c 4
 252 346 313 462 409 541 c 5
EndSplineSet
EndChar
StartChar: cent
Encoding: 162 162 339
GlifName: cent
Width: 1140
VWidth: 0
Flags: W
HStem: -14 135<361.748 485 585 724.289> 961 135<360.388 485 585 720.352>
VStem: 100 140<244.934 838.936> 485 100<-220 -8.94876 121 961 1090.91 1282>
LayerCount: 2
Back
Fore
SplineSet
485 1282 m 1
 585 1282 l 1
 585 1096 l 1
 716 1084 818 1028 895 963 c 1
 811 857 l 1
 751 906 679 949 585 961 c 1
 585 121 l 1
 687 133 767 182 823 244 c 1
 923 152 l 1
 846 66 731 -1 585 -14 c 1
 585 -220 l 1
 485 -220 l 1
 485 -14 l 1
 344 -1 231 67 170 164 c 0
 100 276 100 397 100 541 c 0
 100 692 100 808 169 917 c 0
 231 1015 341 1083 485 1096 c 1
 485 1282 l 1
485 121 m 1
 485 961 l 1
 389 950 327 905 293 854 c 0
 240 775 240 683 240 541 c 0
 240 405 240 315 290 234 c 0
 328 173 397 132 485 121 c 1
EndSplineSet
EndChar
StartChar: currency
Encoding: 164 164 405
GlifName: currency
Width: 1140
VWidth: 0
Flags: W
HStem: 184 134<427.118 702.882> 764 134<427.118 702.882>
VStem: 200 150<396.333 685.667> 780 150<396.333 685.667>
LayerCount: 2
Back
Fore
SplineSet
565 764 m 4
 441 764 350 683 350 541 c 4
 350 399 441 318 565 318 c 4
 689 318 780 399 780 541 c 4
 780 683 689 764 565 764 c 4
216 91 m 5
 115 192 l 5
 260 337 l 5
 221 394 200 465 200 541 c 4
 200 617 221 688 260 745 c 5
 115 890 l 5
 216 991 l 5
 363 844 l 5
 419 878 488 898 565 898 c 4
 642 898 711 878 767 844 c 5
 914 991 l 5
 1015 890 l 5
 870 745 l 5
 909 688 930 617 930 541 c 4
 930 465 909 394 870 337 c 5
 1015 192 l 5
 914 91 l 5
 767 238 l 5
 711 204 642 184 565 184 c 4
 488 184 419 204 363 238 c 5
 216 91 l 5
EndSplineSet
EndChar
StartChar: yen
Encoding: 165 165 340
GlifName: yen
Width: 1140
VWidth: 0
Flags: W
HStem: 0 21G<483 639> 327 124<180 483 639 942> 621 124<180 373.904 748.096 942>
VStem: 483 156<0 327 451 526>
LayerCount: 2
Back
Fore
SplineSet
60 1416 m 1
 229 1416 l 1
 561 672 l 1
 893 1416 l 1
 1062 1416 l 1
 748.095703125 745 l 1
 942 745 l 1
 942 621 l 1
 687.456054688 621 l 1
 639 526 l 1
 639 451 l 1
 942 451 l 1
 942 327 l 1
 639 327 l 1
 639 0 l 1
 483 0 l 1
 483 327 l 1
 180 327 l 1
 180 451 l 1
 483 451 l 1
 483 526 l 1
 434.543945312 621 l 1
 180 621 l 1
 180 745 l 1
 373.904296875 745 l 1
 60 1416 l 1
EndSplineSet
EndChar
StartChar: brokenbar
Encoding: 166 166 341
GlifName: brokenbar
Width: 1140
VWidth: 0
Flags: W
VStem: 156 140<-456 394 698 1538>
LayerCount: 2
Back
Fore
SplineSet
156 1538 m 1
 296 1538 l 1
 296 698 l 1
 156 698 l 1
 156 1538 l 1
156 394 m 1
 296 394 l 1
 296 -456 l 1
 156 -456 l 1
 156 394 l 1
EndSplineSet
EndChar
StartChar: dieresis
Encoding: 168 168 130
GlifName: dieresis
Width: 1140
VWidth: 0
Flags: W
HStem: 1247 188<112.891 275.109 494.891 657.109>
VStem: 100 188<1259.89 1422.11> 482 188<1259.89 1422.11>
AnchorPoint: "Top" 385 1082 mark 0
LayerCount: 2
Back
Fore
SplineSet
576 1435 m 0
 631 1435 670 1396 670 1341 c 0
 670 1286 631 1247 576 1247 c 0
 521 1247 482 1286 482 1341 c 0
 482 1396 521 1435 576 1435 c 0
194 1435 m 0
 249 1435 288 1396 288 1341 c 0
 288 1286 249 1247 194 1247 c 0
 139 1247 100 1286 100 1341 c 0
 100 1396 139 1435 194 1435 c 0
EndSplineSet
EndChar
StartChar: copyright
Encoding: 169 169 73
GlifName: copyright
Width: 1140
VWidth: 0
Flags: W
HStem: -32 100<501.377 1022.62> 234 134<624.52 874.538> 1048 134<625.305 879.053> 1348 100<501.377 1022.62>
VStem: 116 112<342.465 1073.53> 414 150<431.842 982.983> 1296 112<342.465 1073.53>
LayerCount: 2
Back
Fore
SplineSet
762 1448 m 4
 1007 1448 1189 1370 1295 1223 c 4
 1407 1068 1408 860 1408 708 c 4
 1408 556 1407 348 1295 193 c 4
 1189 46 1007 -32 762 -32 c 4
 517 -32 335 46 229 193 c 4
 117 348 116 556 116 708 c 4
 116 860 117 1068 229 1223 c 4
 335 1370 517 1448 762 1448 c 4
762 1348 m 4
 556 1348 411 1288 323 1169 c 4
 232 1047.05761719 228 855.71875 228 708 c 4
 228 560.28125 232 368.942382812 323 247 c 4
 411 128 556 68 762 68 c 4
 968 68 1113 128 1201 247 c 4
 1292 368.942382812 1296 560.28125 1296 708 c 4
 1296 855.71875 1292 1047.05761719 1201 1169 c 4
 1113 1288 968 1348 762 1348 c 4
1021 355 m 1
 960.309570312 289.259765625 866.337890625 234 743 234 c 0
 602.357421875 234 506 300 457 402 c 0
 416 488 414 600.4375 414 707 c 0
 414 822 418 927 454 1008 c 0
 499 1109 599 1182 743 1182 c 0
 850.44140625 1182 934.44140625 1141.26757812 995 1090 c 1
 905 984 l 1
 860 1021 814.532226562 1048 743 1048 c 0
 568 1048 564 882 564 707 c 0
 564 527 570 368 743 368 c 0
 825.252929688 368 874.188476562 405.658203125 920 453 c 1
 1021 355 l 1
  Spiro
    1021 355 v
    949.443 294.466 o
    856.301 250.73 o
    743 234 o
    617.344 254.848 o
    521.592 313.186 o
    457 402 o
    427.649 495.516 o
    416.032 599.783 o
    414 707 o
    416.365 818.041 o
    427.647 919.614 o
    454 1008 o
    516.845 1097.92 o
    614.188 1159.38 o
    743 1182 o
    842.536 1169.56 o
    926.704 1136.6 o
    995 1090 v
    905 984 v
    858.944 1017.01 o
    806.735 1039.65 o
    743 1048 o
    618.894 998.575 o
    571.497 873.034 o
    564 707 o
    571.941 539.262 o
    619.783 415.798 o
    743 368 o
    815.202 379.495 o
    872.08 409.96 o
    920 453 v
    0 0 z
  EndSpiro
EndSplineSet
EndChar
StartChar: guillemotleft
Encoding: 171 171 128
GlifName: guillemotleft
Width: 1140
Flags: W
LayerCount: 2
Back
Fore
SplineSet
684 939 m 1
 802 867 l 1
 592 539 l 1
 802 211 l 1
 684 139 l 1
 440 539 l 1
 684 939 l 1
352 955 m 5
 470 883 l 5
 252 539 l 5
 470 195 l 5
 352 123 l 5
 100 539 l 5
 352 955 l 5
EndSplineSet
EndChar
StartChar: logicalnot
Encoding: 172 172 388
GlifName: logicalnot
Width: 1140
Flags: W
HStem: 474 134<100 650>
VStem: 650 150<200 474>
LayerCount: 2
Back
Fore
SplineSet
100 608 m 1
 800 608 l 1
 800 200 l 1
 650 200 l 1
 650 474 l 1
 100 474 l 1
 100 608 l 1
EndSplineSet
EndChar
StartChar: macron
Encoding: 175 175 194
GlifName: macron
Width: 1140
Flags: W
HStem: 1252 134<100 670>
VStem: 100 570<1252 1386>
AnchorPoint: "Top" 385 1082 mark 0
LayerCount: 2
Back
Fore
SplineSet
100 1386 m 1
 670 1386 l 1
 670 1252 l 1
 100 1252 l 1
 100 1386 l 1
EndSplineSet
EndChar
StartChar: plusminus
Encoding: 177 177 104
GlifName: plusminus
Width: 1140
Flags: W
HStem: 184 134<150 920> 664 134<140 455 605 920>
VStem: 455 150<421 664 798 1031>
LayerCount: 2
Back
Fore
SplineSet
150 184 m 5
 150 318 l 5
 920 318 l 5
 920 184 l 5
 150 184 l 5
140 664 m 5
 140 798 l 5
 455 798 l 5
 455 1031 l 5
 605 1031 l 5
 605 798 l 5
 920 798 l 5
 920 664 l 5
 605 664 l 5
 605 421 l 5
 455 421 l 5
 455 664 l 5
 140 664 l 5
EndSplineSet
EndChar
StartChar: uni00B2
Encoding: 178 178 418
GlifName: uni00B_2
Width: 1140
Flags: W
HStem: 789 118<289 606> 1437 118<188.522 434.969>
VStem: 454 132<1242.1 1414.43>
LayerCount: 2
Back
Fore
SplineSet
321 1555 m 4
 466 1555 586 1467 586 1334 c 4
 586 1243 537.494140625 1197.95019531 488 1140 c 6
 289 907 l 5
 606 907 l 5
 606 789 l 5
 100 789 l 5
 100 885 l 5
 386 1215 l 6
 428.560546875 1264.10742188 454 1289 454 1334 c 4
 454 1403 394 1437 321 1437 c 4
 259.006835938 1437 212.775390625 1413.27441406 176 1382 c 5
 100 1478 l 5
 152.572265625 1520.31738281 228.510742188 1555 321 1555 c 4
EndSplineSet
EndChar
StartChar: uni00B3
Encoding: 179 179 419
GlifName: uni00B_3
Width: 1140
VWidth: 0
Flags: W
HStem: 777 118<200.29 459.347> 1119 118<265 432.291> 1375 21G<164.167 199.98> 1437 118<203.881 451.279>
VStem: 485 132<921.82 1090.48 1269.71 1404.24>
LayerCount: 2
Back
Fore
SplineSet
617 1004 m 4
 617 857 482 777 343 777 c 4
 240.530273438 777 157.578125 814.266601562 100 863 c 5
 180 955 l 5
 219.615234375 920.713867188 275.083007812 895 343 895 c 4
 420 895 485 932 485 1004 c 4
 485 1043 467 1073 434 1095 c 4
 398 1119 332 1119 265 1119 c 5
 264 1237 l 5
 365 1237 396.901367188 1237.13574219 434 1264 c 4
 463 1285 471 1317 471 1339 c 4
 471 1404 412 1437 343 1437 c 4
 275.696289062 1437 219.9609375 1408.71972656 180 1375 c 5
 104 1471 l 5
 160.580078125 1516.30371094 243.498046875 1555 343 1555 c 4
 484 1555 603 1471 603 1339 c 4
 603 1270 569 1215 517 1180 c 5
 576 1143 617 1082 617 1004 c 4
EndSplineSet
EndChar
StartChar: acute
Encoding: 180 180 168
GlifName: acute
Width: 1140
Flags: W
HStem: 1222 274<254 258>
VStem: 100 323
AnchorPoint: "Top" 193 1082 mark 0
LayerCount: 2
Back
Fore
SplineSet
423 1496 m 5
 258 1222 l 5
 100 1222 l 5
 254 1496 l 5
 423 1496 l 5
EndSplineSet
EndChar
StartChar: mu
Encoding: 181 181 122
GlifName: mu
Width: 1140
VWidth: 0
Flags: W
HStem: -16 134<387.969 686.443>
VStem: 140 150<-414 112 217.927 1082> 780 150<214.414 1082>
AnchorPoint: "DoubleTop" 10 0 basechar 0
AnchorPoint: "Apos" 10 0 basechar 0
AnchorPoint: "Center" -20 0 basechar 0
AnchorPoint: "Bottom" 502 0 basechar 0
AnchorPoint: "Top" 502 975 basechar 0
LayerCount: 2
Back
Fore
SplineSet
140 1082 m 1
 290 1082 l 1
 290 496 l 2
 290 360 290 278 341 208 c 0
 380.22430956 154.162712368 448 118 535 118 c 0
 623 118 693 153 732 208 c 0
 780.145292643 275.897207574 780 360 780 496 c 2
 780 1082 l 1
 930 1082 l 1
 930 496 l 2
 930 351 930 238 861 134 c 0
 801.803748 44.7766636517 693 -16 555 -16 c 0
 448 -16 358 29 290 112 c 1
 290 -414 l 1
 140 -414 l 1
 140 1082 l 1
EndSplineSet
EndChar
StartChar: cedilla
Encoding: 184 184 189
GlifName: cedilla
Width: 1140
Flags: W
HStem: -430 124<125.157 237.263> -20 20G<202.348 332>
VStem: 244 140<-299.532 -152.623>
AnchorPoint: "Bottom" 270 0 mark 0
LayerCount: 2
Back
Fore
SplineSet
174 -306 m 0
 219.606060606 -306 244 -269.261344538 244 -228 c 0
 244 -182.723568311 219.795861651 -156.396255873 169 -138 c 1
 208 0 l 1
 332 0 l 1
 304 -97 l 1
 343.705882353 -116.612698413 384 -159.692063492 384 -229 c 0
 384 -350.020942408 297 -430 178 -430 c 0
 144.625 -430 114.958333333 -423.466666667 89 -416 c 1
 127 -297 l 1
 144.904761905 -303.727272727 161.317460317 -306 174 -306 c 0
EndSplineSet
EndChar
StartChar: uni00B9
Encoding: 185 185 417
GlifName: uni00B_9
Width: 1140
Flags: W
VStem: 246 132<789 1389>
LayerCount: 2
Back
Fore
SplineSet
378 789 m 5
 246 789 l 5
 246 1389 l 5
 136 1331 l 5
 80 1439 l 5
 279 1543 l 5
 378 1543 l 5
 378 789 l 5
EndSplineSet
EndChar
StartChar: ordmasculine
Encoding: 186 186 410
GlifName: ordmasculine
Width: 1140
Flags: W
HStem: 777 118<284.224 519.776> 1437 118<284.224 519.776>
VStem: 100 132<947.619 1384.38> 572 132<947.619 1384.38>
LayerCount: 2
Back
Fore
SplineSet
402 1437 m 0
 341 1437 298.162109375 1414.88378906 271 1377 c 0
 233 1324 232 1251 232 1166 c 0
 232 1081 233 1008 271 955 c 0
 298.162109375 917.116210938 341 895 402 895 c 0
 463 895 505.837890625 917.116210938 533 955 c 0
 571 1008 572 1081 572 1166 c 0
 572 1251 571 1324 533 1377 c 0
 505.837890625 1414.88378906 463 1437 402 1437 c 0
402 1555 m 0
 493 1555 569 1522 619 1471 c 0
 693 1395 704 1299 704 1166 c 0
 704 1033 693 937 619 861 c 0
 569 810 493 777 402 777 c 0
 311 777 235 810 185 861 c 0
 111 937 100 1033 100 1166 c 0
 100 1299 111 1395 185 1471 c 0
 235 1522 311 1555 402 1555 c 0
EndSplineSet
EndChar
StartChar: onequarter
Encoding: 188 188 342
GlifName: onequarter
Width: 1140
Flags: W
HStem: 0 21G<925 1057> 165 118<726 925 1057 1121>
VStem: 306 132<789 1389> 925 132<0 165 283 447>
LayerCount: 2
Back
Fore
SplineSet
1121 283 m 5
 1121 165 l 5
 1057 165 l 5
 1057 0 l 5
 925 0 l 5
 925 165 l 5
 568 165 l 5
 568 248 l 5
 828 754 l 5
 968 754 l 5
 726 283 l 5
 925 283 l 5
 925 447 l 5
 1057 447 l 5
 1057 283 l 5
 1121 283 l 5
438 789 m 5
 306 789 l 5
 306 1389 l 5
 196 1331 l 5
 140 1439 l 5
 339 1543 l 5
 438 1543 l 5
 438 789 l 5
EndSplineSet
Refer: 121 8260 N 1 0 0 1 65 63 2
EndChar
StartChar: onehalf
Encoding: 189 189 343
GlifName: onehalf
Width: 1140
Flags: W
HStem: 0 118<957 1274> 648 118<856.522 1102.97>
VStem: 306 132<789 1389> 1122 132<453.099 625.428>
LayerCount: 2
Back
Fore
SplineSet
989 766 m 4
 1134 766 1254 678 1254 545 c 4
 1254 454 1205.49414062 408.950195312 1156 351 c 6
 957 118 l 5
 1274 118 l 5
 1274 0 l 5
 768 0 l 5
 768 96 l 5
 1054 426 l 6
 1096.56054688 475.107421875 1122 500 1122 545 c 4
 1122 614 1062 648 989 648 c 4
 927.006835938 648 880.775390625 624.274414062 844 593 c 5
 768 689 l 5
 820.572265625 731.317382812 896.510742188 766 989 766 c 4
438 789 m 5
 306 789 l 5
 306 1389 l 5
 196 1331 l 5
 140 1439 l 5
 339 1543 l 5
 438 1543 l 5
 438 789 l 5
EndSplineSet
Refer: 121 8260 N 1 0 0 1 65 63 2
EndChar
StartChar: threequarters
Encoding: 190 190 344
GlifName: threequarters
Width: 1140
Flags: W
HStem: 0 21G<1070 1202> 165 118<871 1070 1202 1266> 777 118<203.29 462.347> 1119 118<268 435.291> 1375 21G<167.167 202.98> 1437 118<206.881 454.279>
VStem: 488 132<921.82 1090.48 1269.71 1404.24> 1070 132<0 165 283 447>
LayerCount: 2
Back
Fore
SplineSet
1266 283 m 5
 1266 165 l 5
 1202 165 l 5
 1202 0 l 5
 1070 0 l 5
 1070 165 l 5
 713 165 l 5
 713 248 l 5
 973 754 l 5
 1113 754 l 5
 871 283 l 5
 1070 283 l 5
 1070 447 l 5
 1202 447 l 5
 1202 283 l 5
 1266 283 l 5
620 1004 m 4
 620 857 485 777 346 777 c 4
 243.530273438 777 160.578125 814.266601562 103 863 c 5
 183 955 l 5
 222.615234375 920.713867188 278.083007812 895 346 895 c 4
 423 895 488 932 488 1004 c 4
 488 1043 470 1073 437 1095 c 4
 401 1119 335 1119 268 1119 c 5
 267 1237 l 5
 368 1237 399.901367188 1237.13574219 437 1264 c 4
 466 1285 474 1317 474 1339 c 4
 474 1404 415 1437 346 1437 c 4
 278.696289062 1437 222.9609375 1408.71972656 183 1375 c 5
 107 1471 l 5
 163.580078125 1516.30371094 246.498046875 1555 346 1555 c 4
 487 1555 606 1471 606 1339 c 4
 606 1270 572 1215 520 1180 c 5
 579 1143 620 1082 620 1004 c 4
EndSplineSet
Refer: 121 8260 N 1 0 0 1 205 63 2
EndChar
StartChar: questiondown
Encoding: 191 191 91
GlifName: questiondown
Width: 1140
Flags: W
HStem: -430 134<285.183 596.193> 798 220<344.109 525.891>
VStem: 40 150<-200.053 98.1885> 325 220<817.109 998.891> 369 132<369.51 614.975>
LayerCount: 2
Back
Fore
SplineSet
435 798 m 4xf0
 370 798 325 843 325 908 c 4
 325 973 370 1018 435 1018 c 4
 500 1018 545 973 545 908 c 4
 545 843 500 798 435 798 c 4xf0
678 -191 m 5
 776 -291 l 5
 694 -369 578 -430 435 -430 c 4
 203 -430 40 -267 40 -50 c 4
 40 32 67 107 114 171 c 4
 172 250 287 304 326 372 c 4
 359 429 369 473 369 555 c 13
 370 615 l 5
 500 615 l 5
 500 615 501 580 501 556 c 4xe8
 501 454 493 380 435 297 c 4
 392 234 323 188 270 139 c 4
 220 93 190 28 190 -49 c 4
 190 -191 283 -296 435 -296 c 4
 541 -296 621 -246 678 -191 c 5
EndSplineSet
EndChar
StartChar: Eth
Encoding: 208 208 345
GlifName: E_th
Width: 1140
Flags: W
HStem: 0 140<368 744.909> 652 140<56.123 612> 1276 140<368 744.909>
VStem: 212 156<140 1276> 962 157<367.155 1048.83>
LayerCount: 2
Back
Fore
SplineSet
56 652 m 5
 56.123046875 792 l 5
 612 792 l 5
 612 652 l 5
 56 652 l 5
EndSplineSet
Refer: 17 68 S 1 0 0 1 56 0 2
EndChar
StartChar: multiply
Encoding: 215 215 346
GlifName: multiply
Width: 1140
Flags: W
LayerCount: 2
Back
Fore
SplineSet
850 269 m 5
 757 176 l 5
 485 448 l 5
 213 176 l 5
 120 269 l 5
 392 541 l 5
 120 813 l 5
 213 906 l 5
 485 634 l 5
 757 906 l 5
 850 813 l 5
 578 541 l 5
 850 269 l 5
EndSplineSet
EndChar
StartChar: germandbls
Encoding: 223 223 348
GlifName: germandbls
Width: 1140
VWidth: 0
Flags: W
HStem: -16 134<470.218 730.348> 0 21G<140 290> 774 134<470 632.279> 1328 134<365.83 623.973>
VStem: 140 150<0 1252> 700 150<973.181 1253.14> 840 150<235.108 654.6>
LayerCount: 2
Back
Fore
SplineSet
495 1462 m 1x7c
 704 1462 850 1312 850 1115 c 0x7c
 850 1010 813 925 744 868 c 1
 922 798 990 655 990 442 c 0
 990 317 964.78345192 216.159252618 906 136 c 0
 840 46 724 -16 575 -16 c 0
 529 -16 489 -11 449 -4 c 1
 471 128 l 1
 503 122 539 118 575 118 c 0
 671 118 737.348000443 151.743610361 780 210 c 0
 821 266 840 348 840 442 c 0xba
 840 553 819.099942545 646.105387724 759 703 c 0
 684 774 604 774 470 774 c 1
 470 908 l 1
 532 908 584.16018817 907.949351931 637 954 c 0
 673.878405921 986.140055643 700 1045 700 1115 c 0
 700 1241 618 1328 495 1328 c 1
 427.56640625 1328 374.171540535 1300.19604633 339 1260 c 0
 290 1204 290 1132 290 1042 c 2
 290 0 l 1
 140 0 l 1
 140 1042 l 2
 140 1151 140.866284235 1247.11254062 220 1341 c 0
 279 1411 377 1462 495 1462 c 1x7c
EndSplineSet
EndChar
StartChar: ae
Encoding: 230 230 111
GlifName: ae
Width: 1140
VWidth: 0
Flags: W
HStem: -16 134<299.219 581.217 944.413 1274.74> 509 124<831 1320> 527 124<302.032 690> 964 134<265.726 603.512 939.175 1210.15>
VStem: 80 150<188.577 456.642> 690 140<243.515 509 651 844.196> 1320 150<633 843.485>
LayerCount: 2
Back
Fore
SplineSet
230 321 m 4xbe
 230 255 257 200 293 167 c 4
 329 135 381 118 435 118 c 4
 520 118 588 154 626 207 c 4
 680 282 690 358 690 527 c 13
 505 527 l 4
 410 527 351 525 294 477 c 4
 257 445 230 388 230 321 c 4xbe
690 651 m 5
 690 769 680 833 630 895 c 4
 594 940 533 964 455 964 c 4
 360 964 274 929 207 889 c 5
 139 1008 l 5
 223 1057 331 1098 455 1098 c 4
 600 1098 708 1040 769 939 c 5
 833 1033 939 1098 1073 1098 c 4
 1224 1098 1343 1016 1403 917 c 4
 1461 823 1470 716 1470 579 c 6
 1470 509 l 5
 830 509 l 5xde
 830 395 840 293 885 223 c 4
 926 159 1001 118 1095 118 c 4
 1199 118 1298 165 1363 216 c 5
 1446 105 l 5
 1357 39 1234 -16 1095 -16 c 4
 940 -16 826 53 761 157 c 5
 698 53 582 -16 435 -16 c 4
 348 -16 256 11 187 73 c 4
 125 129 80 213 80 321 c 4
 80 426 123 508 185 562 c 4
 286 651 412 651 505 651 c 4
 690 651 l 5
831 633 m 5
 1320 633 l 5
 1319 718 1305 804 1266 860 c 4
 1224 920 1162 964 1073 964 c 4
 983 964 920 917 883 860 c 4
 845 801 834 720 831 633 c 5
EndSplineSet
EndChar
StartChar: eth
Encoding: 240 240 349
GlifName: eth
Width: 1140
Flags: W
HStem: -16 134<364.63 685.756> 964 134<364.818 685.047>
VStem: 100 150<243.671 835.907> 800 150<241.731 834.755>
LayerCount: 2
Back
Fore
SplineSet
525 964 m 4
 436 964 367.032606358 931.971536226 326 885 c 4
 250 798 250 669 250 541 c 4
 250 413 250.060393025 284.05272019 326 197 c 4
 367 150 436 118 525 118 c 4
 614.445 118 685.431338093 149.304411001 726 197 c 4
 800 284 800 413 800 541 c 4
 800 669 799.939606975 797.94727981 724 885 c 4
 683 932 614 964 525 964 c 4
429.095703125 1217.73632812 m 5
 388.904296875 1298.26367188 l 5
 549.121426954 1378.19250187 l 5
 488.451218818 1425.19722095 419.868956029 1458.97623142 346 1492 c 5
 391 1600 l 5
 484.651614213 1557.43108445 582.929507443 1515.92293267 671.858108464 1439.45066608 c 5
 865.904296875 1536.26367188 l 5
 906.095703125 1455.73632812 l 5
 739.332906888 1372.54054087 l 5
 799.039563431 1304.70809709 845.956310982 1225.44983738 878 1140 c 4
 950 948 950 738 950 541 c 4
 950 394 948.052869948 235.819898088 841 110 c 4
 778.88852459 37 674.075409836 -16 545 -16 c 4
 384.479876161 -16 279.852238594 34.8778786993 212 110 c 4
 100 234 100 394 100 541 c 4
 100 698 103.158713862 846.866852029 208 972 c 4
 270 1046 375 1098 505 1098 c 4
 612 1098 706 1063 780 977 c 5
 755.000426263 1104.58403149 705.659107479 1219.74065984 619.974645478 1312.96855403 c 5
 429.095703125 1217.73632812 l 5
EndSplineSet
EndChar
StartChar: divide
Encoding: 247 247 88
GlifName: divide
Width: 1140
Flags: W
HStem: 136 188<448.891 611.109> 474 134<120 940> 758 188<448.891 611.109>
VStem: 436 188<148.891 311.109 770.891 933.109>
CounterMasks: 1 e0
LayerCount: 2
Back
Fore
SplineSet
530 324 m 4
 585 324 624 285 624 230 c 4
 624 175 585 136 530 136 c 4
 475 136 436 175 436 230 c 4
 436 285 475 324 530 324 c 4
120 608 m 5
 940 608 l 5
 940 474 l 5
 120 474 l 5
 120 608 l 5
530 946 m 4
 585 946 624 907 624 852 c 4
 624 797 585 758 530 758 c 4
 475 758 436 797 436 852 c 4
 436 907 475 946 530 946 c 4
EndSplineSet
EndChar
StartChar: oslash
Encoding: 248 248 123
GlifName: oslash
Width: 1140
VWidth: 0
Flags: W
HStem: -16 134<381.56 694.125> 964 134<375.875 688.44>
VStem: 110 150<278.896 838.339> 810 150<243.661 803.104>
AnchorPoint: "DoubleTop" 10 0 basechar 0
AnchorPoint: "Apos" 10 0 basechar 0
AnchorPoint: "Bottom" 20 0 basechar 0
AnchorPoint: "Center" 20 0 basechar 0
AnchorPoint: "Top" 535 1082 basechar 0
LayerCount: 2
Back
Fore
SplineSet
535 964 m 4
 446 964 377 932 336 885 c 4
 260 798 260 669 260 541 c 4
 260 447 260 353 290 275 c 5
 691 922 l 5
 651 948 598 964 535 964 c 4
208 -116 m 5
 92 -44 l 5
 202 134 l 5
 110 254 110 403 110 541 c 4
 110 688 110 848 222 972 c 4
 288 1045 398 1098 535 1098 c 4
 624 1098 702 1075 764 1039 c 5
 862 1198 l 5
 978 1126 l 5
 868 948 l 5
 960 828 960 679 960 541 c 4
 960 394 960 234 848 110 c 4
 782 37 672 -16 535 -16 c 4
 446 -16 368 7 306 43 c 5
 208 -116 l 5
379 160 m 5
 419 134 472 118 535 118 c 4
 624 118 693 150 734 197 c 4
 810 284 810 413 810 541 c 4
 810 635 810 729 780 807 c 5
 379 160 l 5
EndSplineSet
EndChar
StartChar: thorn
Encoding: 254 254 350
GlifName: thorn
Width: 1140
Flags: W
HStem: -16 134<406.127 704.566> 964 134<406.115 704.891>
VStem: 140 150<-414 117 241.242 840.758 967 1496> 820 150<241.141 839.569>
LayerCount: 2
Back
Fore
SplineSet
555 964 m 4
 462 964 391 923 350 865 c 4
 291 782 290 664 290 541 c 4
 290 418 291 300 350 217 c 4
 391 159 462 118 555 118 c 4
 648 118 719 159 760 217 c 4
 819 300 820 418 820 541 c 4
 820 664 819 782 760 865 c 4
 719 923 648 964 555 964 c 4
290 1496 m 5
 290 967 l 5
 360 1053 448 1098 575 1098 c 4
 719 1098 829 1032 890 938 c 4
 967 819 970 674 970 541 c 4
 970 408 969 257 890 144 c 4
 826 52 719 -16 575 -16 c 4
 447 -16 361 31 290 117 c 5
 290 -414 l 5
 140 -414 l 5
 140 1496 l 5
 290 1496 l 5
EndSplineSet
EndChar
StartChar: dcroat
Encoding: 273 273 356
GlifName: dcroat
Width: 1140
Flags: W
HStem: -16 134<390.543 688.873> 0 21G<805 955> 964 134<390.326 688.885> 1236 124<538 1070>
VStem: 125 150<242.001 839.569> 805 150<0 117 241.242 840.758 967 1496>
LayerCount: 2
Back
Fore
SplineSet
1070 1360 m 1x3c
 1070 1236 l 1
 538 1236 l 1
 538 1360 l 1
 1070 1360 l 1x3c
EndSplineSet
Refer: 48 100 S 1 0 0 1 0 0 2
EndChar
StartChar: Hbar
Encoding: 294 294 358
GlifName: H_bar
Width: 1140
VWidth: 0
Flags: W
HStem: 0 21G<230 386 994 1150> 652 140<386 994> 1136 124<80 1300>
VStem: 230 156<0 652 792 1416> 994 156<0 652 792 1416>
LayerCount: 2
Back
Fore
SplineSet
1300 1260 m 1
 1300 1136 l 1
 80 1136 l 1
 80 1260 l 1
 1300 1260 l 1
EndSplineSet
Refer: 20 72 S 1 0 0 1 74 0 2
EndChar
StartChar: hbar
Encoding: 295 295 359
GlifName: hbar
Width: 1140
Flags: W
HStem: 0 21G<220 370 860 1010> 964 134<467.919 766.233> 1236 124<80 612>
VStem: 220 150<0 864.073 970 1496> 860 150<0 867.577>
LayerCount: 2
Back
Fore
SplineSet
80 1360 m 1
 612 1360 l 1
 612 1236 l 1
 80 1236 l 1
 80 1360 l 1
EndSplineSet
Refer: 55 104 N 1 0 0 1 80 0 2
EndChar
StartChar: dotlessi
Encoding: 305 305 155
GlifName: dotlessi
Width: 1140
VWidth: 0
Flags: W
HStem: 0 21G<140 290>
VStem: 140 150<0 1082>
AnchorPoint: "Center" -14 0 basechar 0
AnchorPoint: "Apos" -14 0 basechar 0
AnchorPoint: "DoubleTop" -14 0 basechar 0
AnchorPoint: "Bottom" 215 0 basechar 0
AnchorPoint: "Top" 215 1082 basechar 0
LayerCount: 2
Back
Fore
SplineSet
290 0 m 5
 140 0 l 5
 140 1082 l 5
 290 1082 l 5
 290 0 l 5
EndSplineSet
EndChar
StartChar: kgreenlandic
Encoding: 312 312 381
GlifName: kgreenlandic
Width: 1140
Flags: W
HStem: 0 21G<140 290 720.327 915>
VStem: 140 150<0 287 489 1082>
AnchorPoint: "Bottom" 469 0 basechar 0
AnchorPoint: "Center" -16 0 basechar 0
AnchorPoint: "Top" -16 0 basechar 0
AnchorPoint: "Apos" 0 0 basechar 0
AnchorPoint: "DoubleTop" 0 0 basechar 0
LayerCount: 2
Back
Fore
SplineSet
140 1082 m 5
 290 1082 l 5
 290 489 l 5
 729 1082 l 5
 905 1082 l 5
 504 547 l 5
 915 0 l 5
 735 0 l 5
 410 443 l 5
 290 287 l 5
 290 0 l 5
 140 0 l 5
 140 1082 l 5
EndSplineSet
EndChar
StartChar: lslash
Encoding: 322 322 363
GlifName: lslash
Width: 1140
VWidth: 0
Flags: W
HStem: 0 21G<253 403>
VStem: 45 566 253 150<0 1496>
LayerCount: 2
Back
Fore
SplineSet
117 542 m 1xc0
 45 646 l 1
 539 990 l 1
 611 886 l 1
 117 542 l 1xc0
EndSplineSet
Refer: 50 108 S 1 0 0 1 113 0 2
EndChar
StartChar: OE
Encoding: 338 338 192
GlifName: O_E_
Width: 1140
VWidth: 0
Flags: W
HStem: -19 140<382.307 687.141> 0 140<952 1456> 652 140<952 1396> 1276 140<952 1456> 1295 140<382.152 687.228>
VStem: 116 156<246.734 1172.59> 796 156<243.914 652 792 1171.83>
AnchorPoint: "Top" 1193 1416 basechar 0
LayerCount: 2
Back
Fore
SplineSet
534 1295 m 4xae
 451 1295 389.421815165 1266.62148427 349 1222 c 4
 272 1137 272 987 272 708 c 4
 272 429 272.803520762 279.721039143 349 194 c 4
 389 149 451 121 534 121 c 4
 617 121 678.578184835 149.378515727 719 194 c 4
 796 279 796 429 796 708 c 4
 796 987 795.196479238 1136.27896086 719 1222 c 4
 679 1267 617 1295 534 1295 c 4xae
796 1416 m 5x36
 1456 1416 l 5
 1456 1276 l 5
 952 1276 l 5
 952 792 l 5
 1396 792 l 5
 1396 652 l 5
 952 652 l 5
 952 140 l 5
 1456 140 l 5
 1456 0 l 5
 796 0 l 5x76
 796 114.161132812 l 5
 724.043162572 22.3525390625 624.765707946 -19 514 -19 c 4
 395.485148515 -19 293.307186284 29.1564615539 229 102 c 4
 116 230 116 385 116 708 c 4
 116 1031 119.053779874 1183.29628957 229 1314 c 4
 291.56886706 1388.38166653 395.485148515 1435 514 1435 c 4xae
 624.765707946 1435 724.043162572 1393.64746094 796 1301.83886719 c 5
 796 1416 l 5x36
EndSplineSet
EndChar
StartChar: Tbar
Encoding: 358 358 367
GlifName: T_bar
Width: 1140
VWidth: 0
Flags: W
HStem: 0 21G<472 628> 722 124<274 472 628 826> 1277 140<86 472 628 1014>
VStem: 472 156<0 722 846 1277>
LayerCount: 2
Back
Fore
SplineSet
86 1417 m 1
 1014 1417 l 1
 1014 1277 l 1
 628 1277 l 1
 628 846 l 1
 826 846 l 1
 826 722 l 1
 628 722 l 1
 628 0 l 1
 472 0 l 1
 472 722 l 1
 274 722 l 1
 274 846 l 1
 472 846 l 1
 472 1277 l 1
 86 1277 l 1
 86 1417 l 1
EndSplineSet
EndChar
StartChar: tbar
Encoding: 359 359 368
GlifName: tbar
Width: 1140
Flags: W
HStem: -16 134<425.657 634.948> 658 124<110 610> 958 124<110 260 410 610>
VStem: 260 150<174.027 958 1082 1316>
LayerCount: 2
Back
Fore
SplineSet
610 782 m 1
 610 658 l 1
 110 658 l 1
 110 782 l 1
 610 782 l 1
EndSplineSet
Refer: 64 116 N 1 0 0 1 30 0 2
EndChar
StartChar: uni0237
Encoding: 567 567 383
GlifName: uni0237
Width: 1140
VWidth: 0
Flags: W
HStem: -430 136<-42.6434 123.225>
VStem: 140 150<-255.726 1082>
AnchorPoint: "DoubleTop" -12 0 basechar 0
AnchorPoint: "Apos" -12 0 basechar 0
AnchorPoint: "Center" -12 0 basechar 0
AnchorPoint: "Bottom" 45 -414 basechar 0
AnchorPoint: "Top" 215 1082 basechar 0
LayerCount: 2
Back
Fore
SplineSet
140 1082 m 1
 290 1082 l 1
 290 -120 l 2
 290 -206 290 -260 256 -318 c 0
 217 -385 142 -430 45 -430 c 0
 -3 -430 -43 -420 -82 -405 c 1
 -32 -278 l 1
 -10 -286 19 -294 45 -294 c 0
 81 -294 106 -281 122 -257 c 0
 140 -230 140 -192 140 -120 c 2
 140 1082 l 1
EndSplineSet
EndChar
StartChar: dotaccent
Encoding: 729 729 195
GlifName: dotaccent
Width: 1140
VWidth: 0
Flags: W
HStem: 1247 188<112.891 275.109>
VStem: 100 188<1259.89 1422.11>
AnchorPoint: "Top" 194 1082 mark 0
LayerCount: 2
Back
Fore
SplineSet
194 1435 m 0
 249 1435 288 1396 288 1341 c 0
 288 1286 249 1247 194 1247 c 0
 139 1247 100 1286 100 1341 c 0
 100 1396 139 1435 194 1435 c 0
EndSplineSet
EndChar
StartChar: ring
Encoding: 730 730 196
GlifName: ring
Width: 1140
VWidth: 0
Flags: W
HStem: 1012 106<231.491 386.509> 1312 106<231.491 386.509>
VStem: 100 118<1129.94 1300.06> 400 118<1129.94 1300.06>
AnchorPoint: "Center" 309 1082 mark 0
LayerCount: 2
Back
Fore
SplineSet
309 1312 m 4
 257 1312 218 1280 218 1215 c 4
 218 1150 257 1118 309 1118 c 4
 361 1118 400 1150 400 1215 c 4
 400 1280 361 1312 309 1312 c 4
309 1418 m 4
 434 1418 518 1327 518 1215 c 4
 518 1103 434 1012 309 1012 c 4
 184 1012 100 1103 100 1215 c 4
 100 1327 184 1418 309 1418 c 4
EndSplineSet
EndChar
StartChar: ogonek
Encoding: 731 731 371
GlifName: ogonek
Width: 1140
VWidth: 0
Flags: W
HStem: -430.003 124.002<234.273 400.75>
VStem: 99.9999 123.999<-295.237 -112.379>
AnchorPoint: "Bottom" 351 0 mark 0
LayerCount: 2
Back
Fore
SplineSet
368 41 m 1
 426 0 l 1
 346.67275108 -35.8755482104 223.998394178 -114.635697102 223.998394178 -218.39242605 c 0
 223.998394178 -265.697268016 257.392368904 -306.001340694 304.545228272 -306.001340694 c 0
 335.178059359 -306.001340694 360.198921632 -291.235676864 381 -279 c 1
 444 -391 l 1
 401.161777292 -414.773073069 353.217111753 -430.002951098 303.861395454 -430.002951098 c 0
 192.989573469 -430.002951098 99.9998747524 -344.657476003 99.9998747524 -234.217034039 c 0
 99.9998747524 -84.885552104 248.420808224 4.31260786023 368 41 c 1
  Spiro
    502 -351 v
    444 -391 o
    305 -430 o
    100 -234 o
    368 41 o
    594 89 v
    630 53 v
    426 0 o
    224 -219 o
    305 -306 o
    381 -279 o
    432 -248 v
    0 0 z
  EndSpiro
EndSplineSet
EndChar
StartChar: tilde
Encoding: 732 732 182
GlifName: tilde
Width: 1140
Flags: W
HStem: 1224 124<420.899 569.017> 1304 124<245.203 393.101>
VStem: 100 614
AnchorPoint: "Top" 407 1082 mark 0
LayerCount: 2
Back
Fore
SplineSet
230 1228 m 1x60
 100 1270 l 1
 123 1349 193 1428 298 1428 c 0x60
 408 1428 463 1348 516 1348 c 0
 550 1348 573 1390 584 1424 c 1
 714 1382 l 1
 691 1302 621 1224 516 1224 c 0xa0
 406 1224 351 1304 298 1304 c 0
 264 1304 242 1263 230 1228 c 1x60
EndSplineSet
EndChar
StartChar: hungarumlaut
Encoding: 733 733 198
GlifName: hungarumlaut
Width: 1140
Flags: W
HStem: 1222 274
VStem: 100 610
AnchorPoint: "Top" 340 1082 mark 0
LayerCount: 2
Back
Fore
SplineSet
710 1496 m 1
 546 1222 l 1
 398 1222 l 1
 551 1496 l 1
 710 1496 l 1
412 1496 m 1
 248 1222 l 1
 100 1222 l 1
 253 1496 l 1
 412 1496 l 1
EndSplineSet
EndChar
StartChar: tonos
Encoding: 900 900 454
GlifName: tonos
Width: 1140
Flags: W
HStem: 1222 274<164 238>
VStem: 112 222
AnchorPoint: "Top" 178 1082 mark 0
LayerCount: 2
Back
Fore
SplineSet
334 1496 m 25
 238 1222 l 1
 112 1222 l 1
 164 1496 l 29
 334 1496 l 25
EndSplineSet
EndChar
StartChar: uni0394
Encoding: 916 916 425
GlifName: uni0394
Width: 1140
Flags: W
HStem: 0 140<240 930>
LayerCount: 2
Back
Fore
SplineSet
930 140 m 5
 585 1205 l 5
 240 140 l 5
 930 140 l 5
510 1416 m 5
 660 1416 l 5
 1140 0 l 5
 30 0 l 5
 510 1416 l 5
EndSplineSet
EndChar
StartChar: Theta
Encoding: 920 920 444
GlifName: T_heta
Width: 1140
Flags: W
HStem: -19 140<438.945 789.055> 638 140<449 777> 1295 140<438.945 789.055>
VStem: 116 156<311.742 1104.26> 956 156<311.742 1104.26>
CounterMasks: 1 e0
LayerCount: 2
Back
Fore
SplineSet
449 778 m 5
 777 778 l 5
 777 638 l 5
 449 638 l 5
 449 778 l 5
EndSplineSet
Refer: 16 79 N 1 0 0 1 0 0 2
EndChar
StartChar: Xi
Encoding: 926 926 442
GlifName: X_i
Width: 1140
VWidth: 0
Flags: W
HStem: 0 140<126 863> 652 140<167 822> 1276 140<126 863>
AnchorPoint: "DoubleTop" -27 0 basechar 0
AnchorPoint: "Apos" -27 0 basechar 0
AnchorPoint: "Center" -27 0 basechar 0
AnchorPoint: "Bottom" 495 0 basechar 0
AnchorPoint: "Top" 495 1364 basechar 0
LayerCount: 2
Back
Fore
SplineSet
167 792 m 1
 822 792 l 1
 822 652 l 1
 167 652 l 1
 167 792 l 1
126 140 m 5
 863 140 l 5
 863 0 l 1
 126 0 l 1
 126 140 l 5
126 1416 m 1
 863 1416 l 1
 863 1276 l 1
 126 1276 l 1
 126 1416 l 1
EndSplineSet
EndChar
StartChar: Psi
Encoding: 936 936 443
GlifName: P_si
Width: 1140
VWidth: 0
Flags: W
HStem: 0 21G<600 752> 272 144<456.612 600 752 895.388>
VStem: 133 152<585.356 1364> 600 152<0 277.852 416 1364> 1067 152<593.555 1364>
CounterMasks: 1 38
AnchorPoint: "Top" 678 1364 basechar 0
AnchorPoint: "Bottom" 678 0 basechar 0
AnchorPoint: "Center" 86 0 basechar 0
AnchorPoint: "Apos" 86 0 basechar 0
AnchorPoint: "DoubleTop" 86 0 basechar 0
LayerCount: 2
Back
Fore
SplineSet
600 1364 m 1
 752 1364 l 1
 752 416 l 1
 834 428 901 455 952 498 c 0
 1067 596 1067 735 1067 913 c 2
 1067 1364 l 1
 1219 1364 l 1
 1219 913 l 2
 1219 727 1219 532 1055 391 c 0
 977 325 873 284 752 272 c 1
 752 0 l 1
 600 0 l 1
 600 272 l 1
 479 284 375 325 297 391 c 0
 133 532 133 727 133 913 c 2
 133 1364 l 1
 285 1364 l 1
 285 913 l 2
 285 735 284 596 399 498 c 0
 450 455 518 428 600 416 c 1
 600 1364 l 1
EndSplineSet
EndChar
StartChar: uni03A9
Encoding: 937 937 397
GlifName: uni03A_9
Width: 1140
VWidth: 0
Flags: W
HStem: 0 140<126 338 932 1144> 1295 140<461.572 808.428>
VStem: 147 156<372.274 1105.39> 967 156<372.274 1105.39>
AnchorPoint: "DoubleTop" -170 0 basechar 0
AnchorPoint: "Apos" -170 0 basechar 0
AnchorPoint: "Center" -170 0 basechar 0
AnchorPoint: "Bottom" 444 0 basechar 0
AnchorPoint: "Top" 444 1364 basechar 0
LayerCount: 2
Back
Fore
SplineSet
635 1435 m 4
 849 1435 993 1328 1060 1179 c 4
 1116.17285156 1054.078125 1123 874 1123 733 c 4
 1123 607 1116.81152344 459 1061 320 c 4
 1034.72753906 254.567382812 995.943359375 192 932 140 c 5
 1144 140 l 5
 1144 0 l 5
 720 0 l 5
 720 109 l 5
 810 160.103515625 877.231445312 251.684570312 917 357 c 4
 956.747070312 462.258789062 967 607.861328125 967 733 c 4
 967 852 965 1021 914 1128 c 4
 867.895507812 1224.72851562 787 1295 635 1295 c 4
 483 1295 402.104492188 1224.72851562 356 1128 c 4
 305 1021 303 852 303 733 c 4
 303 607.861328125 313.252929688 462.258789062 353 357 c 4
 392.768554688 251.684570312 460 160.103515625 550 109 c 5
 550 0 l 5
 126 0 l 5
 126 140 l 5
 338 140 l 5
 274.056640625 192 235.272460938 254.567382812 209 320 c 4
 153.188476562 459 147 607 147 733 c 4
 147 874 153.827148438 1054.078125 210 1179 c 4
 277 1328 421 1435 635 1435 c 4
EndSplineSet
EndChar
StartChar: gamma
Encoding: 947 947 379
GlifName: gamma
Width: 1140
Flags: W
HStem: 0 21G<396.29 553.71>
VStem: 400 150<-414 80>
AnchorPoint: "Top" 475 1082 basechar 0
LayerCount: 2
Back
Fore
SplineSet
400 80 m 1
 550 80 l 1
 550 -414 l 1
 400 -414 l 1
 400 80 l 1
EndSplineSet
Refer: 45 118 N 1 0 0 1 0 0 2
EndChar
StartChar: delta
Encoding: 948 948 483
GlifName: delta
Width: 1140
VWidth: 0
Flags: W
HStem: -12 135<347.274 636.545> 1303 135<369.003 675.559>
VStem: 113 143<220.946 729.736> 174 143<1055.75 1255.31> 727 143<218.237 727.728>
AnchorPoint: "DoubleTop" 0 0 basechar 0
AnchorPoint: "Center" 0 0 basechar 0
AnchorPoint: "Top" 0 0 basechar 0
AnchorPoint: "Apos" 999 1366 basechar 0
AnchorPoint: "Bottom" 471 0 basechar 0
LayerCount: 2
Back
Fore
SplineSet
727 489 m 0xe8
 727 589 721 678 678 735 c 0
 637 792 570 817 492 840 c 1
 414 820 344 792 303 733 c 0
 256 665 256 573 256 489 c 0
 256 374 256 264 322 190 c 0
 371 135 445 123 492 123 c 0
 539 123 613 135 662 190 c 0
 728 264 727 374 727 489 c 0xe8
492 1438 m 1
 580 1438 663 1411 739 1370 c 1
 676 1249 l 1
 617 1282 553 1303 492 1303 c 5
 447 1303 406 1291 373 1266 c 0
 340 1241 317 1204 317 1157 c 0xd8
 317 1053 424 1000 514 975 c 0
 625 944 725 909 795 815 c 0
 871 713 870 581 870 489 c 0
 870 376 871 245 799 139 c 0
 731 39 615 -12 492 -12 c 0
 369 -12 252 39 184 139 c 0
 112 245 113 376 113 489 c 0xe8
 113 569 112 686 186 772 c 0
 235 825 302 871 365 891 c 1
 263 928 174 1032 174 1157 c 0xd8
 174 1249 221 1319 274 1364 c 0
 335 1415 416 1438 492 1438 c 1
EndSplineSet
EndChar
StartChar: zeta
Encoding: 950 950 485
GlifName: zeta
Width: 1140
Flags: W
HStem: 1229 135<123 563>
VStem: 113 143<222.051 576.744> 637 143<-218.387 -45.5798>
LayerCount: 2
Back
Fore
SplineSet
760 -252 m 1
 625 -211 l 1
 633 -184 637 -162 637 -139 c 0
 637 -119 633 -100 625 -84 c 0
 617 -68 606 -55 592 -45 c 0
 580 -37 561 -29 541 -25 c 0
 521 -21 496 -16 469 -12 c 0
 422 -4 368 6 317 31 c 0
 266 56 221 92 186 137 c 0
 133 209 113 295 113 377 c 0
 113 479 143 573 182 659 c 0
 221 745 273 825 324 901 c 0
 400 1014 483 1125 563 1229 c 1
 123 1229 l 1
 123 1364 l 1
 762 1364 l 1
 762 1257 l 1
 651 1116 542 974 444 829 c 0
 395 757 348 682 313 606 c 0
 278 530 256 453 256 377 c 0
 256 316 272 258 305 215 c 0
 325 188 352 166 383 152 c 0
 414 138 451 129 494 123 c 0
 519 119 547 114 578 106 c 0
 609 98 643 86 674 66 c 0
 709 43 738 10 756 -27 c 0
 774 -64 780 -102 780 -139 c 0
 780 -180 770 -217 760 -252 c 1
EndSplineSet
EndChar
StartChar: eta
Encoding: 951 951 445
GlifName: eta
Width: 1140
Flags: W
HStem: 0 21G<140 290> 964 134<387.919 686.233>
VStem: 140 150<0 864.073 970 1082> 780 150<-414 867.577>
AnchorPoint: "Top" 555 1082 basechar 0
LayerCount: 2
Back
Fore
SplineSet
555 1098 m 0
 693 1098 800 1036 861 948 c 0
 930 844 930 731 930 586 c 2
 930 -414 l 1
 780 -414 l 1
 780 586 l 2
 780 722 780 806 732 874 c 0
 693 929 623 964 535 964 c 0
 448 964 380 928 341 874 c 0
 290 804 290 722 290 586 c 2
 290 0 l 1
 140 0 l 1
 140 1082 l 1
 290 1082 l 1
 290 970 l 1
 358 1053 448 1098 555 1098 c 0
EndSplineSet
EndChar
StartChar: pi
Encoding: 960 960 380
GlifName: pi
Width: 1140
VWidth: 0
Flags: W
HStem: 0 21G<220 370 790 940> 948 134<80 220 370 790 940 1080>
VStem: 220 150<0 948> 790 150<0 948>
LayerCount: 2
Back
Fore
SplineSet
80 1082 m 1
 1080 1082 l 5
 1080 948 l 5
 940 948 l 1
 940 0 l 17
 790 0 l 9
 790 948 l 1
 370 948 l 1
 370 0 l 1
 220 0 l 1
 220 948 l 1
 80 948 l 1
 80 1082 l 1
EndSplineSet
EndChar
StartChar: rho
Encoding: 961 961 448
GlifName: rho
Width: 1140
Flags: W
HStem: -16 134<386.127 684.457> 964 134<387.113 682.887>
VStem: 120 150<-414 117 241.242 839.78> 800 150<242.001 840.617>
LayerCount: 2
Back
Fore
SplineSet
535 964 m 0
 442 964 371.284179688 923.797851562 330 866 c 0
 270 782 270 662 270 541 c 0
 270 418 271 300 330 217 c 0
 371 159 442 118 535 118 c 0
 628 118 699 159 740 217 c 0
 799 300 800 418 800 541 c 0
 800 662 800 782 740 866 c 0
 698.715820312 923.797851562 628 964 535 964 c 0
535 1098 m 0
 682 1098 800.705078125 1030.50195312 866 938 c 0
 950 819 950 683 950 541 c 0
 950 408 950 261 870 144 c 0
 805 53 699 -16 555 -16 c 0
 427 -16 341 31 270 117 c 1
 270 -414 l 1
 120 -414 l 1
 120 541 l 0
 120 683 120 819 204 938 c 0
 269.294921875 1030.50195312 388 1098 535 1098 c 0
EndSplineSet
EndChar
StartChar: sigma1
Encoding: 962 962 484
GlifName: sigma1
Width: 1140
Flags: W
HStem: 854 135<352.69 701.689>
VStem: 113 143<228.142 749.811> 625 137<-215.29 -140.919> 637 143<-218.387 -45.5798>
LayerCount: 2
Back
Fore
SplineSet
762 -252 m 1xe0
 625 -211 l 1xe0
 633 -184 637 -162 637 -139 c 0xd0
 637 -119 633 -100 625 -84 c 0xe0
 617 -68 606 -55 592 -45 c 0
 580 -37 561 -29 541 -25 c 0
 521 -21 498 -16 471 -12 c 0
 424 -6 368 4 315 31 c 0
 262 58 217 94 184 143 c 0
 147 198 129 263 121 322 c 0
 113 381 113 439 113 494 c 0
 113 547 113 600 121 657 c 0
 129 716 147 779 184 834 c 0
 219 885 269 925 326 952 c 0
 383 979 443 989 502 989 c 0
 592 989 680 965 758 926 c 1
 692 807 l 1
 633 838 565 854 502 854 c 0
 461 854 422 847 389 831 c 0
 356 817 327 791 307 760 c 0
 284 727 270 686 264 639 c 0
 258 594 256 545 256 494 c 0
 256 441 258 387 264 338 c 0
 270 291 284 250 307 217 c 0
 325 188 350 166 381 152 c 0
 412 138 449 129 492 123 c 0
 517 119 547 114 578 106 c 0
 609 98 643 86 674 66 c 0
 709 43 738 10 756 -27 c 0
 774 -64 780 -102 780 -139 c 0xd0
 780 -180 772 -217 762 -252 c 1xe0
EndSplineSet
EndChar
StartChar: sigma
Encoding: 963 963 449
GlifName: sigma
Width: 1140
Flags: W
HStem: -16 134<365.875 684.125> 948 134<690 1000> 964 134<365.875 684.125>
VStem: 100 150<243.661 838.339> 800 150<243.661 838.339>
LayerCount: 2
Back
Fore
SplineSet
1000 1082 m 5xd8
 1000 948 l 5
 690 948 l 5
 540 1082 l 5
 1000 1082 l 5xd8
EndSplineSet
Refer: 52 111 N 1 0 0 1 0 0 2
EndChar
StartChar: tau
Encoding: 964 964 462
GlifName: tau
Width: 1140
VWidth: 0
Flags: W
HStem: 948 134<80 373 523 816>
VStem: 373 150<2 948>
LayerCount: 2
Back
Fore
SplineSet
373 2 m 1
 373 948 l 1
 80 948 l 1
 80 1082 l 1
 816 1082 l 1
 816 948 l 1
 523 948 l 1
 523 2 l 1
 373 2 l 1
EndSplineSet
EndChar
StartChar: phi
Encoding: 966 966 487
GlifName: phi
Width: 1140
Flags: W
HStem: 258 533<150 645>
VStem: 150 495<258 791>
LayerCount: 2
Back
Fore
SplineSet
150 791 m 1
 645 791 l 1
 645 258 l 1
 150 258 l 1
 150 791 l 1
EndSplineSet
EndChar
StartChar: psi
Encoding: 968 968 488
GlifName: psi
Width: 1140
Flags: W
HStem: 258 533<150 645>
VStem: 150 495<258 791>
LayerCount: 2
Back
Fore
SplineSet
150 791 m 1
 645 791 l 1
 645 258 l 1
 150 258 l 1
 150 791 l 1
EndSplineSet
EndChar
StartChar: omega
Encoding: 969 969 469
GlifName: omega
Width: 1140
VWidth: 0
Flags: W
HStem: -12 137<416.051 578 713 873.949>
VStem: 119 143<289.251 851.938> 578 135<125 793> 1028 143<289.251 851.938>
AnchorPoint: "Top" 645 979 basechar 0
AnchorPoint: "Bottom" 645 0 basechar 0
AnchorPoint: "Center" 385 0 basechar 0
AnchorPoint: "Apos" 385 0 basechar 0
AnchorPoint: "DoubleTop" 385 0 basechar 0
LayerCount: 2
Back
Fore
SplineSet
713 793 m 1
 713 125 l 1
 805 131 873 154 930 211 c 0
 998 279 1028 389 1028 510 c 0
 1028 660 997 811 956 963 c 1
 1096 995 l 1
 1139 839 1171 678 1171 510 c 0
 1171 369 1138 223 1034 119 c 0
 938 23 817 -12 645 -12 c 0
 473 -12 352 23 256 119 c 0
 152 223 119 369 119 510 c 0
 119 678 152 839 195 995 c 1
 334 963 l 1
 293 811 262 660 262 510 c 0
 262 389 292 279 360 211 c 0
 417 154 486 131 578 125 c 1
 578 793 l 1
 713 793 l 1
EndSplineSet
EndChar
StartChar: endash
Encoding: 8211 8211 92
GlifName: endash
Width: 1140
Flags: W
HStem: 472 134<100 924>
LayerCount: 2
Back
Fore
SplineSet
100 472 m 5
 100 606 l 5
 924 606 l 5
 924 472 l 5
 100 472 l 5
EndSplineSet
EndChar
StartChar: emdash
Encoding: 8212 8212 93
GlifName: emdash
Width: 1140
Flags: W
HStem: 472 134<100 1948>
LayerCount: 2
Back
Fore
SplineSet
100 472 m 1
 100 606 l 1
 1948 606 l 5
 1948 472 l 5
 100 472 l 1
EndSplineSet
EndChar
StartChar: quoteright
Encoding: 8217 8217 85
GlifName: quoteright
Width: 1140
Flags: W
HStem: 1006 424<165.391 205>
VStem: 100 220<1230.37 1410.89>
AnchorPoint: "Apos" 45 1366 mark 0
LayerCount: 2
Back
Fore
SplineSet
210 1430 m 4
 275 1430 320 1385 320 1320 c 4
 320 1295 316 1279 295 1228 c 6
 205 1006 l 5
 107 1006 l 5
 164 1219 l 5
 127 1233 100 1271 100 1320 c 4
 100 1385 145 1430 210 1430 c 4
EndSplineSet
EndChar
StartChar: dagger
Encoding: 8224 8224 384
GlifName: dagger
Width: 1140
VWidth: 0
Flags: W
HStem: 0 21G<405 555> 948 134<80 405 555 880>
VStem: 405 150<0 948 1082 1361>
LayerCount: 2
Back
Fore
SplineSet
80 948 m 1
 80 1082 l 1
 405 1082 l 1
 405 1361 l 5
 555 1361 l 5
 555 1082 l 1
 880 1082 l 1
 880 948 l 1
 555 948 l 1
 555 0 l 1
 405 0 l 1
 405 948 l 1
 80 948 l 1
EndSplineSet
EndChar
StartChar: bullet
Encoding: 8226 8226 100
GlifName: bullet
Width: 1140
VWidth: 0
Flags: W
HStem: 342 340<170.349 407.925>
VStem: 120 338<392.349 631.651>
LayerCount: 2
Back
Fore
SplineSet
290 682 m 0
 388 682 458 612 458 512 c 0
 458 412 388 342 290 342 c 0
 190 342 120 412 120 512 c 0
 120 612 190 682 290 682 c 0
EndSplineSet
EndChar
StartChar: uni2031
Encoding: 8241 8241 474
GlifName: uni2031
Width: 1140
Flags: W
HStem: 0 118<1018.61 1215.35 1408.65 1605.35 1798.65 1995.39> 560 118<1018.61 1215.35 1408.65 1605.35 1798.65 1995.39> 754 118<252.613 449.387> 1314 118<252.613 449.387>
VStem: 90 132<899.976 1286.02> 480 132<899.976 1286.02> 856 132<145.976 532.024> 1246 132<145.183 532.817> 1636 132<145.183 532.817> 2026 132<145.976 532.024>
LayerCount: 2
Back
Fore
SplineSet
1378 339 m 0
 1378 233.112304688 1378.2421875 118 1507 118 c 0
 1635.7578125 118 1636 233.112304688 1636 339 c 0
 1636 444.887695312 1635.7578125 560 1507 560 c 0
 1378.2421875 560 1378 444.887695312 1378 339 c 0
1117 560 m 0
 988.2421875 560 988 444.887695312 988 339 c 0
 988 233.112304688 988.2421875 118 1117 118 c 0
 1245.7578125 118 1246 233.112304688 1246 339 c 0
 1246 444.887695312 1245.7578125 560 1117 560 c 0
351 1314 m 0
 222.2421875 1314 222 1198.88769531 222 1093 c 0
 222 987.112304688 222.2421875 872 351 872 c 0
 479.7578125 872 480 987.112304688 480 1093 c 0
 480 1198.88769531 479.7578125 1314 351 1314 c 0
351 1432 m 0
 432.7578125 1432 502.9609375 1401.38574219 546.112304688 1352 c 0
 611.079101562 1277.64746094 612 1184.33007812 612 1093 c 0
 612 1001.66992188 611.079101562 908.352539062 546.112304688 834 c 0
 502.9609375 784.614257812 432.7578125 754 351 754 c 0
 269.2421875 754 199.0390625 784.614257812 155.887695312 834 c 0
 90.9208984375 908.352539062 90 1001.66992188 90 1093 c 0
 90 1184.33007812 90.9208984375 1277.64746094 155.887695312 1352 c 0
 199.0390625 1401.38574219 269.2421875 1432 351 1432 c 0
1061 1352 m 1
 1175 1280 l 1
 407 64 l 1
 293 136 l 1
 1061 1352 l 1
1897 678 m 0
 1978.7578125 678 2048.9609375 647.385742188 2092.11230469 598 c 0
 2157.07910156 523.647460938 2158 430.330078125 2158 339 c 0
 2158 247.669921875 2157.07910156 154.352539062 2092.11230469 80 c 0
 2048.9609375 30.6142578125 1978.7578125 0 1897 0 c 0
 1815.31307593 0 1745.16113281 30.5615234375 1702 89.8720703125 c 1
 1658.83886719 30.5615234375 1588.68692407 3.5527136788e-15 1507 0 c 0
 1425.31307593 0 1355.16113281 30.5615234375 1312 89.8720703125 c 1
 1268.83886719 30.5615234375 1198.68692407 3.5527136788e-15 1117 0 c 0
 1035.2421875 0 965.0390625 30.6142578125 921.887695312 80 c 0
 856.920898438 154.352539062 856 247.669921875 856 339 c 0
 856 430.330078125 856.920898438 523.647460938 921.887695312 598 c 0
 965.0390625 647.385742188 1035.2421875 678 1117 678 c 0
 1198.68692407 678 1268.83886719 647.438476562 1312 588.127929688 c 1
 1355.16113281 647.438476562 1425.31307593 678 1507 678 c 0
 1588.68692407 678 1658.83886719 647.438476562 1702 588.127929688 c 1
 1745.16113281 647.438476562 1815.31307593 678 1897 678 c 0
1768 339 m 0
 1768 233.112304688 1768.2421875 118 1897 118 c 0
 2025.7578125 118 2026 233.112304688 2026 339 c 0
 2026 444.887695312 2025.7578125 560 1897 560 c 0
 1768.2421875 560 1768 444.887695312 1768 339 c 0
EndSplineSet
EndChar
StartChar: guilsinglleft
Encoding: 8249 8249 187
GlifName: guilsinglleft
Width: 1140
Flags: W
VStem: 100 370
LayerCount: 2
Back
Fore
SplineSet
352 955 m 5
 470 883 l 5
 252 539 l 5
 470 195 l 5
 352 123 l 5
 100 539 l 5
 352 955 l 5
EndSplineSet
EndChar
StartChar: fraction
Encoding: 8260 8260 121
GlifName: fraction
Width: 1140
Flags: W
LayerCount: 2
Back
Fore
SplineSet
868 1352 m 5
 982 1280 l 5
 214 64 l 5
 100 136 l 5
 868 1352 l 5
EndSplineSet
EndChar
StartChar: uni20BA
Encoding: 8378 8378 398
GlifName: uni20B_A_
Width: 1140
VWidth: 0
Flags: W
HStem: 0 140<460 633.114>
VStem: 782 156<289.082 510>
LayerCount: 2
Back
Fore
SplineSet
427 0 m 2
 569.505859375 0 698.432975674 24.1776529742 810.397460938 140 c 0
 909 242 938 357.272597381 938 510 c 1
 782 510 l 1
 782 388.612212366 765.158203125 307.802734375 698.260742188 235 c 0
 640.620299286 172.271433101 554.877544037 140 460 140 c 1
 460 671 l 1
 738 812 l 1
 738 937 l 1
 460 796 l 1
 460 957 l 1
 738 1099 l 1
 738 1224 l 1
 460 1082 l 1
 460 1416 l 1
 304 1416 l 1
 304 1010 l 1
 120 916 l 1
 120 791 l 1
 304 886 l 1
 304 724 l 1
 120 630 l 1
 120 505 l 1
 304 599 l 1
 304 0 l 1
 427 0 l 2
EndSplineSet
EndChar
StartChar: arrowboth
Encoding: 8596 8596 415
GlifName: arrowboth
Width: 1140
Flags: W
HStem: 474 134<292 1408>
LayerCount: 2
Back
Fore
SplineSet
1086 982 m 5
 1192 1074 l 5
 1620 582 l 5
 1620 500 l 5
 1192 8 l 5
 1086 100 l 5
 1408 474 l 5
 292 474 l 5
 614 100 l 5
 508 8 l 5
 80 500 l 5
 80 582 l 5
 508 1074 l 5
 614 982 l 5
 292 608 l 5
 1408 608 l 5
 1086 982 l 5
EndSplineSet
EndChar
StartChar: radical
Encoding: 8730 8730 389
GlifName: radical
Width: 1140
Flags: W
HStem: 0 21G<425.268 586.896>
LayerCount: 2
Back
Fore
SplineSet
60 552 m 5
 180 634 l 5
 483 183 l 5
 867 1496 l 5
 1022 1496 l 5
 581 0 l 5
 439 0 l 5
 60 552 l 5
EndSplineSet
EndChar
StartChar: integral
Encoding: 8747 8747 124
GlifName: integral
Width: 1140
Flags: W
HStem: -430 136<47.3566 213.225> 1378 134<414.58 632.371>
VStem: 230 150<-255.726 1342.82>
LayerCount: 2
Back
Fore
SplineSet
515 1512 m 4
 569 1512 616 1503 662 1489 c 5
 624 1360 l 5
 586 1371 555 1378 515 1378 c 4
 471 1378 431 1360 410 1329 c 4
 380 1284 380 1245 380 1133 c 6
 380 -120 l 6
 380 -206 380 -260 346 -318 c 4
 307 -385 232 -430 135 -430 c 4
 87 -430 47 -420 8 -405 c 5
 58 -278 l 5
 80 -286 109 -294 135 -294 c 4
 171 -294 196 -281 212 -257 c 4
 230 -230 230 -192 230 -120 c 6
 230 1133 l 6
 230 1256 230 1327 286 1404 c 4
 334 1470 417 1512 515 1512 c 4
EndSplineSet
EndChar
StartChar: notequal
Encoding: 8800 8800 119
GlifName: notequal
Width: 1140
Flags: W
HStem: 314 134<140 840> 634 134<140 840>
LayerCount: 2
Back
Fore
SplineSet
190 45 m 5
 678 1037 l 5
 790 1037 l 1
 302 45 l 1
 190 45 l 5
EndSplineSet
Refer: 82 61 N 1 0 0 1 0 0 2
EndChar
StartChar: lessequal
Encoding: 8804 8804 117
GlifName: lessequal
Width: 1140
Flags: W
HStem: 264 134<140 840>
LayerCount: 2
Back
Fore
SplineSet
785 1144 m 5
 837 1018 l 5
 329 811 l 5
 837 604 l 5
 785 478 l 5
 140 750 l 5
 140 872 l 5
 785 1144 l 5
140 398 m 5
 840 398 l 5
 840 264 l 5
 140 264 l 5
 140 398 l 5
EndSplineSet
EndChar
StartChar: lozenge
Encoding: 9674 9674 406
GlifName: lozenge
Width: 1140
VWidth: 0
Flags: W
HStem: -38 21G<379.455 536.545>
LayerCount: 2
Back
Fore
SplineSet
390 1120 m 1
 526 1120 l 1
 816 570 l 1
 816 512 l 1
 526 -38 l 1
 390 -38 l 1
 100 512 l 1
 100 570 l 1
 390 1120 l 1
458 954 m 5
 251 541 l 1
 458 128 l 1
 665 541 l 1
 458 954 l 5
EndSplineSet
EndChar
StartChar: aAlt
Encoding: 57344 57344 490
GlifName: aA_lt
Width: 2048
Flags: H
LayerCount: 2
Back
SplineSet
217.087890625 309.248046875 m 4
 217.087890625 280.240234375 223.030273438 251.543945312 234.358398438 226.65234375 c 4
 245.530273438 202.106445312 262.692382812 180.517578125 282.849609375 165.030273438 c 4
 301.637695312 150.595703125 324.912109375 139.7578125 350.471679688 132.948242188 c 4
 376.471679688 126.022460938 404.751953125 122.879882812 434.17578125 122.879882812 c 4
 463.599609375 122.879882812 491.877929688 126.022460938 517.881835938 132.948242188 c 4
 543.438476562 139.755859375 566.711914062 150.59375 585.50390625 165.032226562 c 4
 605.658203125 180.515625 622.822265625 202.106445312 633.994140625 226.654296875 c 4
 645.322265625 251.541992188 651.263671875 280.2421875 651.263671875 309.248046875 c 4
 651.263671875 338.255859375 645.322265625 366.952148438 633.994140625 391.841796875 c 4
 622.822265625 416.393554688 605.66015625 437.977539062 585.50390625 453.463867188 c 4
 566.708007812 467.90625 543.444335938 478.736328125 517.879882812 485.547851562 c 4
 491.874023438 492.475585938 463.6015625 495.616210938 434.17578125 495.616210938 c 4
 404.75 495.616210938 376.475585938 492.475585938 350.473632812 485.547851562 c 4
 324.908203125 478.736328125 301.639648438 467.904296875 282.849609375 453.465820312 c 4
 262.690429688 437.975585938 245.532226562 416.393554688 234.358398438 391.841796875 c 4
 223.030273438 366.952148438 217.087890625 338.25390625 217.087890625 309.248046875 c 4
73.7275390625 309.248046875 m 4
 73.7275390625 355.244140625 82.8740234375 401.765625 102.614257812 445.141601562 c 4
 122.5078125 488.858398438 152.969726562 528.040039062 192.286132812 558.24609375 c 4
 228.608398438 586.154296875 269.896484375 604.541992188 311.490234375 615.622070312 c 4
 352.643554688 626.5859375 394.1015625 630.784179688 434.17578125 630.784179688 c 4
 474.25 630.784179688 515.709960938 626.5859375 556.860351562 615.622070312 c 4
 598.456054688 604.541992188 639.748046875 586.15234375 676.064453125 558.248046875 c 4
 715.383789062 528.040039062 745.841796875 488.858398438 765.73828125 445.141601562 c 4
 785.477539062 401.767578125 794.624023438 355.2421875 794.624023438 309.248046875 c 4
 794.624023438 263.251953125 785.477539062 216.73046875 765.73828125 173.3515625 c 4
 745.841796875 129.635742188 715.385742188 90.4599609375 676.064453125 60.24609375 c 4
 639.744140625 32.341796875 598.461914062 13.9560546875 556.858398438 2.8720703125 c 4
 515.706054688 -8.08984375 474.251953125 -12.2880859375 434.17578125 -12.2880859375 c 4
 394.099609375 -12.2880859375 352.6484375 -8.08984375 311.4921875 2.8720703125 c 4
 269.891601562 13.9560546875 228.610351562 32.341796875 192.286132812 60.248046875 c 4
 152.967773438 90.4599609375 122.509765625 129.635742188 102.614257812 173.3515625 c 4
 82.8740234375 216.727539062 73.7275390625 263.251953125 73.7275390625 309.248046875 c 4
-14.498046875 865.765625 m 5
 31.095703125 892.629882812 70.4658203125 911.368164062 116.4296875 928.938476562 c 4
 216.763671875 967.286132812 325.206054688 991.377929688 436.322265625 991.232421875 c 4
 482.618164062 991.171875 532.08203125 986.028320312 580.940429688 969.25 c 4
 630.364257812 952.276367188 676.702148438 923.494140625 712.515625 882.8984375 c 4
 752.583984375 837.48046875 774.629882812 783.040039062 784.940429688 729.671875 c 4
 795.129882812 676.927734375 794.624023438 626.942382812 794.624023438 581.631835938 c 4
 794.624023438 0 l 5
 651.263671875 0 l 5
 651.263671875 581.631835938 l 4
 651.263671875 627.265625 650.961914062 668.900390625 643.900390625 705.448242188 c 4
 636.961914062 741.374023438 622.396484375 773.681640625 602.299804688 796.461914062 c 4
 584.278320312 816.891601562 559.419921875 832.786132812 531.879882812 842.244140625 c 4
 503.774414062 851.893554688 471.206054688 856.017578125 436.125976562 856.064453125 c 4
 347.286132812 856.1796875 256.732421875 836.711914062 170.290039062 803.671875 c 4
 117.919921875 783.654296875 67.8857421875 757.528320312 21.8662109375 725.7578125 c 4
 -3.001953125 708.591796875 -43.990234375 708.013671875 -69.9736328125 731.400390625 c 4
 -110.93359375 768.263671875 l 5
 -61.4404296875 817.15234375 l 4
 -14.498046875 865.765625 l 5
EndSplineSet
Fore
EndChar
